<?xml version="1.0" encoding="utf-8" standalone="no"?>
<!DOCTYPE svg PUBLIC "-//W3C//DTD SVG 1.1//EN"
  "http://www.w3.org/Graphics/SVG/1.1/DTD/svg11.dtd">
<svg xmlns:xlink="http://www.w3.org/1999/xlink" width="360pt" height="360pt" viewBox="0 0 360 360" xmlns="http://www.w3.org/2000/svg" version="1.1">
 <metadata>
  <rdf:RDF xmlns:dc="http://purl.org/dc/elements/1.1/" xmlns:cc="http://creativecommons.org/ns#" xmlns:rdf="http://www.w3.org/1999/02/22-rdf-syntax-ns#">
   <cc:Work>
    <dc:type rdf:resource="http://purl.org/dc/dcmitype/StillImage"/>
    <dc:date>2022-09-13T10:14:29.761374</dc:date>
    <dc:format>image/svg+xml</dc:format>
    <dc:creator>
     <cc:Agent>
      <dc:title>Matplotlib v3.5.3, https://matplotlib.org/</dc:title>
     </cc:Agent>
    </dc:creator>
   </cc:Work>
  </rdf:RDF>
 </metadata>
 <defs>
  <style type="text/css">*{stroke-linejoin: round; stroke-linecap: butt}</style>
 </defs>
 <g id="figure_1">
  <g id="patch_1">
   <path d="M 0 360 
L 360 360 
L 360 0 
L 0 0 
z
" style="fill: #ffffff"/>
  </g>
  <g id="axes_1">
   <g id="patch_2">
    <path d="M 24.19 334.9248 
L 284.198 334.9248 
L 284.198 22.9152 
L 24.19 22.9152 
z
" style="fill: #ffffff"/>
   </g>
   <g id="PolyCollection_1">
    <path d="M 36.008545 320.742545 
L 59.645636 320.742545 
L 59.645636 297.105455 
z
" clip-path="url(#p9c6b393a12)" style="fill: #99d999"/>
    <path d="M 59.645636 297.105455 
L 36.008545 297.105455 
L 36.008545 320.742545 
z
" clip-path="url(#p9c6b393a12)" style="fill: #99d999"/>
    <path d="M 59.645636 320.742545 
L 83.282727 320.742545 
L 83.282727 297.105455 
z
" clip-path="url(#p9c6b393a12)" style="fill: #99d999"/>
    <path d="M 83.282727 297.105455 
L 59.645636 297.105455 
L 59.645636 320.742545 
z
" clip-path="url(#p9c6b393a12)" style="fill: #99d999"/>
    <path d="M 36.008545 297.105455 
L 59.645636 297.105455 
L 59.645636 273.468364 
z
" clip-path="url(#p9c6b393a12)" style="fill: #99d999"/>
    <path d="M 59.645636 273.468364 
L 36.008545 273.468364 
L 36.008545 297.105455 
z
" clip-path="url(#p9c6b393a12)" style="fill: #99d999"/>
    <path d="M 59.645636 297.105455 
L 83.282727 297.105455 
L 83.282727 273.468364 
z
" clip-path="url(#p9c6b393a12)" style="fill: #99d999"/>
    <path d="M 83.282727 273.468364 
L 59.645636 273.468364 
L 59.645636 297.105455 
z
" clip-path="url(#p9c6b393a12)" style="fill: #99d999"/>
    <path d="M 36.008545 273.468364 
L 59.645636 273.468364 
L 59.645636 249.831273 
z
" clip-path="url(#p9c6b393a12)" style="fill: #99d999"/>
    <path d="M 59.645636 249.831273 
L 36.008545 249.831273 
L 36.008545 273.468364 
z
" clip-path="url(#p9c6b393a12)" style="fill: #99d999"/>
    <path d="M 59.645636 273.468364 
L 83.282727 273.468364 
L 83.282727 249.831273 
z
" clip-path="url(#p9c6b393a12)" style="fill: #99d999"/>
    <path d="M 83.282727 249.831273 
L 59.645636 249.831273 
L 59.645636 273.468364 
z
" clip-path="url(#p9c6b393a12)" style="fill: #99d999"/>
    <path d="M 36.008545 249.831273 
L 59.645636 249.831273 
L 59.645636 226.194182 
z
" clip-path="url(#p9c6b393a12)" style="fill: #99d999"/>
    <path d="M 59.645636 226.194182 
L 36.008545 226.194182 
L 36.008545 249.831273 
z
" clip-path="url(#p9c6b393a12)" style="fill: #99d999"/>
    <path d="M 59.645636 249.831273 
L 83.282727 249.831273 
L 83.282727 226.194182 
z
" clip-path="url(#p9c6b393a12)" style="fill: #99d999"/>
    <path d="M 83.282727 226.194182 
L 59.645636 226.194182 
L 59.645636 249.831273 
z
" clip-path="url(#p9c6b393a12)" style="fill: #99d999"/>
    <path d="M 36.008545 226.194182 
L 59.645636 226.194182 
L 59.645636 202.557091 
z
" clip-path="url(#p9c6b393a12)" style="fill: #99d999"/>
    <path d="M 59.645636 202.557091 
L 36.008545 202.557091 
L 36.008545 226.194182 
z
" clip-path="url(#p9c6b393a12)" style="fill: #99d999"/>
    <path d="M 59.645636 226.194182 
L 83.282727 226.194182 
L 83.282727 202.557091 
z
" clip-path="url(#p9c6b393a12)" style="fill: #99d999"/>
    <path d="M 83.282727 202.557091 
L 59.645636 202.557091 
L 59.645636 226.194182 
z
" clip-path="url(#p9c6b393a12)" style="fill: #99d999"/>
    <path d="M 83.282727 226.194182 
L 106.919818 226.194182 
L 106.919818 202.557091 
z
" clip-path="url(#p9c6b393a12)" style="fill: #99d999"/>
    <path d="M 106.919818 202.557091 
L 83.282727 202.557091 
L 83.282727 226.194182 
z
" clip-path="url(#p9c6b393a12)" style="fill: #99d999"/>
    <path d="M 106.919818 226.194182 
L 130.556909 226.194182 
L 130.556909 202.557091 
z
" clip-path="url(#p9c6b393a12)" style="fill: #99d999"/>
    <path d="M 130.556909 202.557091 
L 106.919818 202.557091 
L 106.919818 226.194182 
z
" clip-path="url(#p9c6b393a12)" style="fill: #99d999"/>
    <path d="M 130.556909 226.194182 
L 154.194 226.194182 
L 154.194 202.557091 
z
" clip-path="url(#p9c6b393a12)" style="fill: #99d999"/>
    <path d="M 154.194 202.557091 
L 130.556909 202.557091 
L 130.556909 226.194182 
z
" clip-path="url(#p9c6b393a12)" style="fill: #99d999"/>
    <path d="M 154.194 226.194182 
L 177.831091 226.194182 
L 177.831091 202.557091 
z
" clip-path="url(#p9c6b393a12)" style="fill: #99d999"/>
    <path d="M 177.831091 202.557091 
L 154.194 202.557091 
L 154.194 226.194182 
z
" clip-path="url(#p9c6b393a12)" style="fill: #99d999"/>
    <path d="M 177.831091 226.194182 
L 201.468182 226.194182 
L 201.468182 202.557091 
z
" clip-path="url(#p9c6b393a12)" style="fill: #99d999"/>
    <path d="M 201.468182 202.557091 
L 177.831091 202.557091 
L 177.831091 226.194182 
z
" clip-path="url(#p9c6b393a12)" style="fill: #99d999"/>
    <path d="M 201.468182 226.194182 
L 225.105273 226.194182 
L 225.105273 202.557091 
z
" clip-path="url(#p9c6b393a12)" style="fill: #99d999"/>
    <path d="M 225.105273 202.557091 
L 201.468182 202.557091 
L 201.468182 226.194182 
z
" clip-path="url(#p9c6b393a12)" style="fill: #99d999"/>
    <path d="M 225.105273 226.194182 
L 248.742364 226.194182 
L 248.742364 202.557091 
z
" clip-path="url(#p9c6b393a12)" style="fill: #99d999"/>
    <path d="M 248.742364 202.557091 
L 225.105273 202.557091 
L 225.105273 226.194182 
z
" clip-path="url(#p9c6b393a12)" style="fill: #99d999"/>
    <path d="M 248.742364 226.194182 
L 272.379455 226.194182 
L 272.379455 202.557091 
z
" clip-path="url(#p9c6b393a12)" style="fill: #99d999"/>
    <path d="M 272.379455 202.557091 
L 248.742364 202.557091 
L 248.742364 226.194182 
z
" clip-path="url(#p9c6b393a12)" style="fill: #99d999"/>
    <path d="M 36.008545 202.557091 
L 59.645636 202.557091 
L 59.645636 178.92 
z
" clip-path="url(#p9c6b393a12)" style="fill: #99d999"/>
    <path d="M 59.645636 178.92 
L 36.008545 178.92 
L 36.008545 202.557091 
z
" clip-path="url(#p9c6b393a12)" style="fill: #99d999"/>
    <path d="M 59.645636 202.557091 
L 83.282727 202.557091 
L 83.282727 178.92 
z
" clip-path="url(#p9c6b393a12)" style="fill: #99d999"/>
    <path d="M 83.282727 178.92 
L 59.645636 178.92 
L 59.645636 202.557091 
z
" clip-path="url(#p9c6b393a12)" style="fill: #99d999"/>
    <path d="M 83.282727 202.557091 
L 106.919818 202.557091 
L 106.919818 178.92 
z
" clip-path="url(#p9c6b393a12)" style="fill: #99d999"/>
    <path d="M 106.919818 178.92 
L 83.282727 178.92 
L 83.282727 202.557091 
z
" clip-path="url(#p9c6b393a12)" style="fill: #99d999"/>
    <path d="M 106.919818 202.557091 
L 130.556909 202.557091 
L 130.556909 178.92 
z
" clip-path="url(#p9c6b393a12)" style="fill: #99d999"/>
    <path d="M 130.556909 178.92 
L 106.919818 178.92 
L 106.919818 202.557091 
z
" clip-path="url(#p9c6b393a12)" style="fill: #99d999"/>
    <path d="M 130.556909 202.557091 
L 154.194 202.557091 
L 154.194 178.92 
z
" clip-path="url(#p9c6b393a12)" style="fill: #99d999"/>
    <path d="M 154.194 178.92 
L 130.556909 178.92 
L 130.556909 202.557091 
z
" clip-path="url(#p9c6b393a12)" style="fill: #99d999"/>
    <path d="M 154.194 202.557091 
L 177.831091 202.557091 
L 177.831091 178.92 
z
" clip-path="url(#p9c6b393a12)" style="fill: #99d999"/>
    <path d="M 177.831091 178.92 
L 154.194 178.92 
L 154.194 202.557091 
z
" clip-path="url(#p9c6b393a12)" style="fill: #99d999"/>
    <path d="M 177.831091 202.557091 
L 201.468182 202.557091 
L 201.468182 178.92 
z
" clip-path="url(#p9c6b393a12)" style="fill: #99d999"/>
    <path d="M 201.468182 178.92 
L 177.831091 178.92 
L 177.831091 202.557091 
z
" clip-path="url(#p9c6b393a12)" style="fill: #99d999"/>
    <path d="M 201.468182 202.557091 
L 225.105273 202.557091 
L 225.105273 178.92 
z
" clip-path="url(#p9c6b393a12)" style="fill: #99d999"/>
    <path d="M 225.105273 178.92 
L 201.468182 178.92 
L 201.468182 202.557091 
z
" clip-path="url(#p9c6b393a12)" style="fill: #99d999"/>
    <path d="M 225.105273 202.557091 
L 248.742364 202.557091 
L 248.742364 178.92 
z
" clip-path="url(#p9c6b393a12)" style="fill: #99d999"/>
    <path d="M 248.742364 178.92 
L 225.105273 178.92 
L 225.105273 202.557091 
z
" clip-path="url(#p9c6b393a12)" style="fill: #99d999"/>
    <path d="M 248.742364 202.557091 
L 272.379455 202.557091 
L 272.379455 178.92 
z
" clip-path="url(#p9c6b393a12)" style="fill: #99d999"/>
    <path d="M 272.379455 178.92 
L 248.742364 178.92 
L 248.742364 202.557091 
z
" clip-path="url(#p9c6b393a12)" style="fill: #99d999"/>
    <path d="M 36.008545 178.92 
L 59.645636 178.92 
L 59.645636 155.282909 
z
" clip-path="url(#p9c6b393a12)" style="fill: #99d999"/>
    <path d="M 59.645636 155.282909 
L 36.008545 155.282909 
L 36.008545 178.92 
z
" clip-path="url(#p9c6b393a12)" style="fill: #99d999"/>
    <path d="M 59.645636 178.92 
L 83.282727 178.92 
L 83.282727 155.282909 
z
" clip-path="url(#p9c6b393a12)" style="fill: #99d999"/>
    <path d="M 83.282727 155.282909 
L 59.645636 155.282909 
L 59.645636 178.92 
z
" clip-path="url(#p9c6b393a12)" style="fill: #99d999"/>
    <path d="M 83.282727 178.92 
L 106.919818 178.92 
L 106.919818 155.282909 
z
" clip-path="url(#p9c6b393a12)" style="fill: #99d999"/>
    <path d="M 106.919818 155.282909 
L 83.282727 155.282909 
L 83.282727 178.92 
z
" clip-path="url(#p9c6b393a12)" style="fill: #99d999"/>
    <path d="M 106.919818 178.92 
L 130.556909 178.92 
L 130.556909 155.282909 
z
" clip-path="url(#p9c6b393a12)" style="fill: #99d999"/>
    <path d="M 130.556909 155.282909 
L 106.919818 155.282909 
L 106.919818 178.92 
z
" clip-path="url(#p9c6b393a12)" style="fill: #99d999"/>
    <path d="M 130.556909 178.92 
L 154.194 178.92 
L 154.194 155.282909 
z
" clip-path="url(#p9c6b393a12)" style="fill: #99d999"/>
    <path d="M 154.194 155.282909 
L 130.556909 155.282909 
L 130.556909 178.92 
z
" clip-path="url(#p9c6b393a12)" style="fill: #99d999"/>
    <path d="M 154.194 178.92 
L 177.831091 178.92 
L 177.831091 155.282909 
z
" clip-path="url(#p9c6b393a12)" style="fill: #99d999"/>
    <path d="M 177.831091 155.282909 
L 154.194 155.282909 
L 154.194 178.92 
z
" clip-path="url(#p9c6b393a12)" style="fill: #99d999"/>
    <path d="M 177.831091 178.92 
L 201.468182 178.92 
L 201.468182 155.282909 
z
" clip-path="url(#p9c6b393a12)" style="fill: #99d999"/>
    <path d="M 201.468182 155.282909 
L 177.831091 155.282909 
L 177.831091 178.92 
z
" clip-path="url(#p9c6b393a12)" style="fill: #99d999"/>
    <path d="M 201.468182 178.92 
L 225.105273 178.92 
L 225.105273 155.282909 
z
" clip-path="url(#p9c6b393a12)" style="fill: #99d999"/>
    <path d="M 225.105273 155.282909 
L 201.468182 155.282909 
L 201.468182 178.92 
z
" clip-path="url(#p9c6b393a12)" style="fill: #99d999"/>
    <path d="M 225.105273 178.92 
L 248.742364 178.92 
L 248.742364 155.282909 
z
" clip-path="url(#p9c6b393a12)" style="fill: #99d999"/>
    <path d="M 248.742364 155.282909 
L 225.105273 155.282909 
L 225.105273 178.92 
z
" clip-path="url(#p9c6b393a12)" style="fill: #99d999"/>
    <path d="M 248.742364 178.92 
L 272.379455 178.92 
L 272.379455 155.282909 
z
" clip-path="url(#p9c6b393a12)" style="fill: #99d999"/>
    <path d="M 272.379455 155.282909 
L 248.742364 155.282909 
L 248.742364 178.92 
z
" clip-path="url(#p9c6b393a12)" style="fill: #99d999"/>
    <path d="M 36.008545 155.282909 
L 59.645636 155.282909 
L 59.645636 131.645818 
z
" clip-path="url(#p9c6b393a12)" style="fill: #99d999"/>
    <path d="M 59.645636 131.645818 
L 36.008545 131.645818 
L 36.008545 155.282909 
z
" clip-path="url(#p9c6b393a12)" style="fill: #99d999"/>
    <path d="M 59.645636 155.282909 
L 83.282727 155.282909 
L 83.282727 131.645818 
z
" clip-path="url(#p9c6b393a12)" style="fill: #99d999"/>
    <path d="M 83.282727 131.645818 
L 59.645636 131.645818 
L 59.645636 155.282909 
z
" clip-path="url(#p9c6b393a12)" style="fill: #99d999"/>
    <path d="M 83.282727 155.282909 
L 106.919818 155.282909 
L 106.919818 131.645818 
z
" clip-path="url(#p9c6b393a12)" style="fill: #99d999"/>
    <path d="M 106.919818 131.645818 
L 83.282727 131.645818 
L 83.282727 155.282909 
z
" clip-path="url(#p9c6b393a12)" style="fill: #99d999"/>
    <path d="M 106.919818 155.282909 
L 130.556909 155.282909 
L 130.556909 131.645818 
z
" clip-path="url(#p9c6b393a12)" style="fill: #99d999"/>
    <path d="M 130.556909 131.645818 
L 106.919818 131.645818 
L 106.919818 155.282909 
z
" clip-path="url(#p9c6b393a12)" style="fill: #99d999"/>
    <path d="M 130.556909 155.282909 
L 154.194 155.282909 
L 154.194 131.645818 
z
" clip-path="url(#p9c6b393a12)" style="fill: #99d999"/>
    <path d="M 154.194 131.645818 
L 130.556909 131.645818 
L 130.556909 155.282909 
z
" clip-path="url(#p9c6b393a12)" style="fill: #99d999"/>
    <path d="M 154.194 155.282909 
L 177.831091 155.282909 
L 177.831091 131.645818 
z
" clip-path="url(#p9c6b393a12)" style="fill: #99d999"/>
    <path d="M 177.831091 131.645818 
L 154.194 131.645818 
L 154.194 155.282909 
z
" clip-path="url(#p9c6b393a12)" style="fill: #99d999"/>
    <path d="M 177.831091 155.282909 
L 201.468182 155.282909 
L 201.468182 131.645818 
z
" clip-path="url(#p9c6b393a12)" style="fill: #99d999"/>
    <path d="M 201.468182 131.645818 
L 177.831091 131.645818 
L 177.831091 155.282909 
z
" clip-path="url(#p9c6b393a12)" style="fill: #99d999"/>
    <path d="M 201.468182 155.282909 
L 225.105273 155.282909 
L 225.105273 131.645818 
z
" clip-path="url(#p9c6b393a12)" style="fill: #99d999"/>
    <path d="M 225.105273 131.645818 
L 201.468182 131.645818 
L 201.468182 155.282909 
z
" clip-path="url(#p9c6b393a12)" style="fill: #99d999"/>
    <path d="M 225.105273 155.282909 
L 248.742364 155.282909 
L 248.742364 131.645818 
z
" clip-path="url(#p9c6b393a12)" style="fill: #99d999"/>
    <path d="M 248.742364 131.645818 
L 225.105273 131.645818 
L 225.105273 155.282909 
z
" clip-path="url(#p9c6b393a12)" style="fill: #99d999"/>
    <path d="M 248.742364 155.282909 
L 272.379455 155.282909 
L 272.379455 131.645818 
z
" clip-path="url(#p9c6b393a12)" style="fill: #99d999"/>
    <path d="M 272.379455 131.645818 
L 248.742364 131.645818 
L 248.742364 155.282909 
z
" clip-path="url(#p9c6b393a12)" style="fill: #99d999"/>
    <path d="M 36.008545 131.645818 
L 59.645636 131.645818 
L 59.645636 108.008727 
z
" clip-path="url(#p9c6b393a12)" style="fill: #99d999"/>
    <path d="M 59.645636 108.008727 
L 36.008545 108.008727 
L 36.008545 131.645818 
z
" clip-path="url(#p9c6b393a12)" style="fill: #99d999"/>
    <path d="M 59.645636 131.645818 
L 83.282727 131.645818 
L 83.282727 108.008727 
z
" clip-path="url(#p9c6b393a12)" style="fill: #99d999"/>
    <path d="M 83.282727 108.008727 
L 59.645636 108.008727 
L 59.645636 131.645818 
z
" clip-path="url(#p9c6b393a12)" style="fill: #99d999"/>
    <path d="M 36.008545 108.008727 
L 59.645636 108.008727 
L 59.645636 84.371636 
z
" clip-path="url(#p9c6b393a12)" style="fill: #99d999"/>
    <path d="M 59.645636 84.371636 
L 36.008545 84.371636 
L 36.008545 108.008727 
z
" clip-path="url(#p9c6b393a12)" style="fill: #99d999"/>
    <path d="M 59.645636 108.008727 
L 83.282727 108.008727 
L 83.282727 84.371636 
z
" clip-path="url(#p9c6b393a12)" style="fill: #99d999"/>
    <path d="M 83.282727 84.371636 
L 59.645636 84.371636 
L 59.645636 108.008727 
z
" clip-path="url(#p9c6b393a12)" style="fill: #99d999"/>
    <path d="M 36.008545 84.371636 
L 59.645636 84.371636 
L 59.645636 60.734545 
z
" clip-path="url(#p9c6b393a12)" style="fill: #99d999"/>
    <path d="M 59.645636 60.734545 
L 36.008545 60.734545 
L 36.008545 84.371636 
z
" clip-path="url(#p9c6b393a12)" style="fill: #99d999"/>
    <path d="M 59.645636 84.371636 
L 83.282727 84.371636 
L 83.282727 60.734545 
z
" clip-path="url(#p9c6b393a12)" style="fill: #99d999"/>
    <path d="M 83.282727 60.734545 
L 59.645636 60.734545 
L 59.645636 84.371636 
z
" clip-path="url(#p9c6b393a12)" style="fill: #99d999"/>
    <path d="M 36.008545 60.734545 
L 59.645636 60.734545 
L 59.645636 37.097455 
z
" clip-path="url(#p9c6b393a12)" style="fill: #99d999"/>
    <path d="M 59.645636 37.097455 
L 36.008545 37.097455 
L 36.008545 60.734545 
z
" clip-path="url(#p9c6b393a12)" style="fill: #99d999"/>
    <path d="M 59.645636 60.734545 
L 83.282727 60.734545 
L 83.282727 37.097455 
z
" clip-path="url(#p9c6b393a12)" style="fill: #99d999"/>
    <path d="M 83.282727 37.097455 
L 59.645636 37.097455 
L 59.645636 60.734545 
z
" clip-path="url(#p9c6b393a12)" style="fill: #99d999"/>
   </g>
   <g id="line2d_1">
    <path d="M 59.645636 320.742545 
L 36.008545 320.742545 
M 59.645636 297.105455 
L 36.008545 320.742545 
M 59.645636 297.105455 
L 59.645636 320.742545 
M 36.008545 297.105455 
L 36.008545 320.742545 
M 36.008545 297.105455 
L 59.645636 297.105455 
M 83.282727 320.742545 
L 59.645636 320.742545 
M 83.282727 297.105455 
L 59.645636 320.742545 
M 83.282727 297.105455 
L 59.645636 297.105455 
M 83.282727 297.105455 
L 83.282727 320.742545 
M 59.645636 273.468364 
L 59.645636 297.105455 
M 59.645636 273.468364 
L 36.008545 297.105455 
M 36.008545 273.468364 
L 36.008545 297.105455 
M 36.008545 273.468364 
L 59.645636 273.468364 
M 83.282727 273.468364 
L 59.645636 297.105455 
M 83.282727 273.468364 
L 83.282727 297.105455 
M 83.282727 273.468364 
L 59.645636 273.468364 
M 59.645636 249.831273 
L 59.645636 273.468364 
M 59.645636 249.831273 
L 36.008545 273.468364 
M 36.008545 249.831273 
L 36.008545 273.468364 
M 36.008545 249.831273 
L 59.645636 249.831273 
M 83.282727 249.831273 
L 59.645636 273.468364 
M 83.282727 249.831273 
L 83.282727 273.468364 
M 83.282727 249.831273 
L 59.645636 249.831273 
M 59.645636 226.194182 
L 59.645636 249.831273 
M 59.645636 226.194182 
L 36.008545 249.831273 
M 36.008545 226.194182 
L 36.008545 249.831273 
M 36.008545 226.194182 
L 59.645636 226.194182 
M 83.282727 226.194182 
L 59.645636 249.831273 
M 83.282727 226.194182 
L 83.282727 249.831273 
M 83.282727 226.194182 
L 59.645636 226.194182 
M 59.645636 202.557091 
L 59.645636 226.194182 
M 59.645636 202.557091 
L 36.008545 226.194182 
M 36.008545 202.557091 
L 36.008545 226.194182 
M 36.008545 202.557091 
L 59.645636 202.557091 
M 83.282727 202.557091 
L 59.645636 226.194182 
M 83.282727 202.557091 
L 83.282727 226.194182 
M 83.282727 202.557091 
L 59.645636 202.557091 
M 106.919818 226.194182 
L 83.282727 226.194182 
M 106.919818 202.557091 
L 83.282727 226.194182 
M 106.919818 202.557091 
L 83.282727 202.557091 
M 106.919818 202.557091 
L 106.919818 226.194182 
M 130.556909 226.194182 
L 106.919818 226.194182 
M 130.556909 202.557091 
L 106.919818 226.194182 
M 130.556909 202.557091 
L 106.919818 202.557091 
M 130.556909 202.557091 
L 130.556909 226.194182 
M 154.194 226.194182 
L 130.556909 226.194182 
M 154.194 202.557091 
L 130.556909 226.194182 
M 154.194 202.557091 
L 130.556909 202.557091 
M 154.194 202.557091 
L 154.194 226.194182 
M 177.831091 226.194182 
L 154.194 226.194182 
M 177.831091 202.557091 
L 154.194 226.194182 
M 177.831091 202.557091 
L 154.194 202.557091 
M 177.831091 202.557091 
L 177.831091 226.194182 
M 201.468182 226.194182 
L 177.831091 226.194182 
M 201.468182 202.557091 
L 177.831091 226.194182 
M 201.468182 202.557091 
L 177.831091 202.557091 
M 201.468182 202.557091 
L 201.468182 226.194182 
M 225.105273 226.194182 
L 201.468182 226.194182 
M 225.105273 202.557091 
L 201.468182 226.194182 
M 225.105273 202.557091 
L 201.468182 202.557091 
M 225.105273 202.557091 
L 225.105273 226.194182 
M 248.742364 226.194182 
L 225.105273 226.194182 
M 248.742364 202.557091 
L 225.105273 226.194182 
M 248.742364 202.557091 
L 225.105273 202.557091 
M 248.742364 202.557091 
L 248.742364 226.194182 
M 272.379455 226.194182 
L 248.742364 226.194182 
M 272.379455 202.557091 
L 248.742364 226.194182 
M 272.379455 202.557091 
L 248.742364 202.557091 
M 272.379455 202.557091 
L 272.379455 226.194182 
M 59.645636 178.92 
L 59.645636 202.557091 
M 59.645636 178.92 
L 36.008545 202.557091 
M 36.008545 178.92 
L 36.008545 202.557091 
M 36.008545 178.92 
L 59.645636 178.92 
M 83.282727 178.92 
L 59.645636 202.557091 
M 83.282727 178.92 
L 83.282727 202.557091 
M 83.282727 178.92 
L 59.645636 178.92 
M 106.919818 178.92 
L 83.282727 202.557091 
M 106.919818 178.92 
L 106.919818 202.557091 
M 106.919818 178.92 
L 83.282727 178.92 
M 130.556909 178.92 
L 106.919818 202.557091 
M 130.556909 178.92 
L 130.556909 202.557091 
M 130.556909 178.92 
L 106.919818 178.92 
M 154.194 178.92 
L 130.556909 202.557091 
M 154.194 178.92 
L 154.194 202.557091 
M 154.194 178.92 
L 130.556909 178.92 
M 177.831091 178.92 
L 154.194 202.557091 
M 177.831091 178.92 
L 177.831091 202.557091 
M 177.831091 178.92 
L 154.194 178.92 
M 201.468182 178.92 
L 177.831091 202.557091 
M 201.468182 178.92 
L 201.468182 202.557091 
M 201.468182 178.92 
L 177.831091 178.92 
M 225.105273 178.92 
L 201.468182 202.557091 
M 225.105273 178.92 
L 225.105273 202.557091 
M 225.105273 178.92 
L 201.468182 178.92 
M 248.742364 178.92 
L 225.105273 202.557091 
M 248.742364 178.92 
L 248.742364 202.557091 
M 248.742364 178.92 
L 225.105273 178.92 
M 272.379455 178.92 
L 248.742364 202.557091 
M 272.379455 178.92 
L 272.379455 202.557091 
M 272.379455 178.92 
L 248.742364 178.92 
M 59.645636 155.282909 
L 59.645636 178.92 
M 59.645636 155.282909 
L 36.008545 178.92 
M 36.008545 155.282909 
L 36.008545 178.92 
M 36.008545 155.282909 
L 59.645636 155.282909 
M 83.282727 155.282909 
L 59.645636 178.92 
M 83.282727 155.282909 
L 83.282727 178.92 
M 83.282727 155.282909 
L 59.645636 155.282909 
M 106.919818 155.282909 
L 83.282727 178.92 
M 106.919818 155.282909 
L 106.919818 178.92 
M 106.919818 155.282909 
L 83.282727 155.282909 
M 130.556909 155.282909 
L 106.919818 178.92 
M 130.556909 155.282909 
L 130.556909 178.92 
M 130.556909 155.282909 
L 106.919818 155.282909 
M 154.194 155.282909 
L 130.556909 178.92 
M 154.194 155.282909 
L 154.194 178.92 
M 154.194 155.282909 
L 130.556909 155.282909 
M 177.831091 155.282909 
L 154.194 178.92 
M 177.831091 155.282909 
L 177.831091 178.92 
M 177.831091 155.282909 
L 154.194 155.282909 
M 201.468182 155.282909 
L 177.831091 178.92 
M 201.468182 155.282909 
L 201.468182 178.92 
M 201.468182 155.282909 
L 177.831091 155.282909 
M 225.105273 155.282909 
L 201.468182 178.92 
M 225.105273 155.282909 
L 225.105273 178.92 
M 225.105273 155.282909 
L 201.468182 155.282909 
M 248.742364 155.282909 
L 225.105273 178.92 
M 248.742364 155.282909 
L 248.742364 178.92 
M 248.742364 155.282909 
L 225.105273 155.282909 
M 272.379455 155.282909 
L 248.742364 178.92 
M 272.379455 155.282909 
L 272.379455 178.92 
M 272.379455 155.282909 
L 248.742364 155.282909 
M 59.645636 131.645818 
L 59.645636 155.282909 
M 59.645636 131.645818 
L 36.008545 155.282909 
M 36.008545 131.645818 
L 36.008545 155.282909 
M 36.008545 131.645818 
L 59.645636 131.645818 
M 83.282727 131.645818 
L 59.645636 155.282909 
M 83.282727 131.645818 
L 83.282727 155.282909 
M 83.282727 131.645818 
L 59.645636 131.645818 
M 106.919818 131.645818 
L 83.282727 155.282909 
M 106.919818 131.645818 
L 106.919818 155.282909 
M 106.919818 131.645818 
L 83.282727 131.645818 
M 130.556909 131.645818 
L 106.919818 155.282909 
M 130.556909 131.645818 
L 130.556909 155.282909 
M 130.556909 131.645818 
L 106.919818 131.645818 
M 154.194 131.645818 
L 130.556909 155.282909 
M 154.194 131.645818 
L 154.194 155.282909 
M 154.194 131.645818 
L 130.556909 131.645818 
M 177.831091 131.645818 
L 154.194 155.282909 
M 177.831091 131.645818 
L 177.831091 155.282909 
M 177.831091 131.645818 
L 154.194 131.645818 
M 201.468182 131.645818 
L 177.831091 155.282909 
M 201.468182 131.645818 
L 201.468182 155.282909 
M 201.468182 131.645818 
L 177.831091 131.645818 
M 225.105273 131.645818 
L 201.468182 155.282909 
M 225.105273 131.645818 
L 225.105273 155.282909 
M 225.105273 131.645818 
L 201.468182 131.645818 
M 248.742364 131.645818 
L 225.105273 155.282909 
M 248.742364 131.645818 
L 248.742364 155.282909 
M 248.742364 131.645818 
L 225.105273 131.645818 
M 272.379455 131.645818 
L 248.742364 155.282909 
M 272.379455 131.645818 
L 272.379455 155.282909 
M 272.379455 131.645818 
L 248.742364 131.645818 
M 59.645636 108.008727 
L 59.645636 131.645818 
M 59.645636 108.008727 
L 36.008545 131.645818 
M 36.008545 108.008727 
L 36.008545 131.645818 
M 36.008545 108.008727 
L 59.645636 108.008727 
M 83.282727 108.008727 
L 59.645636 131.645818 
M 83.282727 108.008727 
L 83.282727 131.645818 
M 83.282727 108.008727 
L 59.645636 108.008727 
M 59.645636 84.371636 
L 59.645636 108.008727 
M 59.645636 84.371636 
L 36.008545 108.008727 
M 36.008545 84.371636 
L 36.008545 108.008727 
M 36.008545 84.371636 
L 59.645636 84.371636 
M 83.282727 84.371636 
L 59.645636 108.008727 
M 83.282727 84.371636 
L 83.282727 108.008727 
M 83.282727 84.371636 
L 59.645636 84.371636 
M 59.645636 60.734545 
L 59.645636 84.371636 
M 59.645636 60.734545 
L 36.008545 84.371636 
M 36.008545 60.734545 
L 36.008545 84.371636 
M 36.008545 60.734545 
L 59.645636 60.734545 
M 83.282727 60.734545 
L 59.645636 84.371636 
M 83.282727 60.734545 
L 83.282727 84.371636 
M 83.282727 60.734545 
L 59.645636 60.734545 
M 59.645636 37.097455 
L 59.645636 60.734545 
M 59.645636 37.097455 
L 36.008545 60.734545 
M 36.008545 37.097455 
L 36.008545 60.734545 
M 36.008545 37.097455 
L 59.645636 37.097455 
M 83.282727 37.097455 
L 59.645636 60.734545 
M 83.282727 37.097455 
L 83.282727 60.734545 
M 83.282727 37.097455 
L 59.645636 37.097455 
L 59.645636 37.097455 
" clip-path="url(#p9c6b393a12)" style="fill: none; stroke: #000000; stroke-width: 2; stroke-linecap: square"/>
   </g>
   <g id="matplotlib.axis_1">
    <g id="xtick_1">
     <g id="line2d_2">
      <defs>
       <path id="m12474df11b" d="M 0 0 
L 0 3.5 
" style="stroke: #000000; stroke-width: 0.8"/>
      </defs>
      <g>
       <use xlink:href="#m12474df11b" x="36.008545" y="334.9248" style="stroke: #000000; stroke-width: 0.8"/>
      </g>
     </g>
     <g id="text_1">
      <!-- 4 -->
      <g transform="translate(32.827295 349.523238)scale(0.1 -0.1)">
       <defs>
        <path id="DejaVuSans-34" d="M 2419 4116 
L 825 1625 
L 2419 1625 
L 2419 4116 
z
M 2253 4666 
L 3047 4666 
L 3047 1625 
L 3713 1625 
L 3713 1100 
L 3047 1100 
L 3047 0 
L 2419 0 
L 2419 1100 
L 313 1100 
L 313 1709 
L 2253 4666 
z
" transform="scale(0.015625)"/>
       </defs>
       <use xlink:href="#DejaVuSans-34"/>
      </g>
     </g>
    </g>
    <g id="xtick_2">
     <g id="line2d_3">
      <g>
       <use xlink:href="#m12474df11b" x="83.282727" y="334.9248" style="stroke: #000000; stroke-width: 0.8"/>
      </g>
     </g>
     <g id="text_2">
      <!-- 5 -->
      <g transform="translate(80.101477 349.523238)scale(0.1 -0.1)">
       <defs>
        <path id="DejaVuSans-35" d="M 691 4666 
L 3169 4666 
L 3169 4134 
L 1269 4134 
L 1269 2991 
Q 1406 3038 1543 3061 
Q 1681 3084 1819 3084 
Q 2600 3084 3056 2656 
Q 3513 2228 3513 1497 
Q 3513 744 3044 326 
Q 2575 -91 1722 -91 
Q 1428 -91 1123 -41 
Q 819 9 494 109 
L 494 744 
Q 775 591 1075 516 
Q 1375 441 1709 441 
Q 2250 441 2565 725 
Q 2881 1009 2881 1497 
Q 2881 1984 2565 2268 
Q 2250 2553 1709 2553 
Q 1456 2553 1204 2497 
Q 953 2441 691 2322 
L 691 4666 
z
" transform="scale(0.015625)"/>
       </defs>
       <use xlink:href="#DejaVuSans-35"/>
      </g>
     </g>
    </g>
    <g id="xtick_3">
     <g id="line2d_4">
      <g>
       <use xlink:href="#m12474df11b" x="130.556909" y="334.9248" style="stroke: #000000; stroke-width: 0.8"/>
      </g>
     </g>
     <g id="text_3">
      <!-- 6 -->
      <g transform="translate(127.375659 349.523238)scale(0.1 -0.1)">
       <defs>
        <path id="DejaVuSans-36" d="M 2113 2584 
Q 1688 2584 1439 2293 
Q 1191 2003 1191 1497 
Q 1191 994 1439 701 
Q 1688 409 2113 409 
Q 2538 409 2786 701 
Q 3034 994 3034 1497 
Q 3034 2003 2786 2293 
Q 2538 2584 2113 2584 
z
M 3366 4563 
L 3366 3988 
Q 3128 4100 2886 4159 
Q 2644 4219 2406 4219 
Q 1781 4219 1451 3797 
Q 1122 3375 1075 2522 
Q 1259 2794 1537 2939 
Q 1816 3084 2150 3084 
Q 2853 3084 3261 2657 
Q 3669 2231 3669 1497 
Q 3669 778 3244 343 
Q 2819 -91 2113 -91 
Q 1303 -91 875 529 
Q 447 1150 447 2328 
Q 447 3434 972 4092 
Q 1497 4750 2381 4750 
Q 2619 4750 2861 4703 
Q 3103 4656 3366 4563 
z
" transform="scale(0.015625)"/>
       </defs>
       <use xlink:href="#DejaVuSans-36"/>
      </g>
     </g>
    </g>
    <g id="xtick_4">
     <g id="line2d_5">
      <g>
       <use xlink:href="#m12474df11b" x="177.831091" y="334.9248" style="stroke: #000000; stroke-width: 0.8"/>
      </g>
     </g>
     <g id="text_4">
      <!-- 7 -->
      <g transform="translate(174.649841 349.523238)scale(0.1 -0.1)">
       <defs>
        <path id="DejaVuSans-37" d="M 525 4666 
L 3525 4666 
L 3525 4397 
L 1831 0 
L 1172 0 
L 2766 4134 
L 525 4134 
L 525 4666 
z
" transform="scale(0.015625)"/>
       </defs>
       <use xlink:href="#DejaVuSans-37"/>
      </g>
     </g>
    </g>
    <g id="xtick_5">
     <g id="line2d_6">
      <g>
       <use xlink:href="#m12474df11b" x="225.105273" y="334.9248" style="stroke: #000000; stroke-width: 0.8"/>
      </g>
     </g>
     <g id="text_5">
      <!-- 8 -->
      <g transform="translate(221.924023 349.523238)scale(0.1 -0.1)">
       <defs>
        <path id="DejaVuSans-38" d="M 2034 2216 
Q 1584 2216 1326 1975 
Q 1069 1734 1069 1313 
Q 1069 891 1326 650 
Q 1584 409 2034 409 
Q 2484 409 2743 651 
Q 3003 894 3003 1313 
Q 3003 1734 2745 1975 
Q 2488 2216 2034 2216 
z
M 1403 2484 
Q 997 2584 770 2862 
Q 544 3141 544 3541 
Q 544 4100 942 4425 
Q 1341 4750 2034 4750 
Q 2731 4750 3128 4425 
Q 3525 4100 3525 3541 
Q 3525 3141 3298 2862 
Q 3072 2584 2669 2484 
Q 3125 2378 3379 2068 
Q 3634 1759 3634 1313 
Q 3634 634 3220 271 
Q 2806 -91 2034 -91 
Q 1263 -91 848 271 
Q 434 634 434 1313 
Q 434 1759 690 2068 
Q 947 2378 1403 2484 
z
M 1172 3481 
Q 1172 3119 1398 2916 
Q 1625 2713 2034 2713 
Q 2441 2713 2670 2916 
Q 2900 3119 2900 3481 
Q 2900 3844 2670 4047 
Q 2441 4250 2034 4250 
Q 1625 4250 1398 4047 
Q 1172 3844 1172 3481 
z
" transform="scale(0.015625)"/>
       </defs>
       <use xlink:href="#DejaVuSans-38"/>
      </g>
     </g>
    </g>
    <g id="xtick_6">
     <g id="line2d_7">
      <g>
       <use xlink:href="#m12474df11b" x="272.379455" y="334.9248" style="stroke: #000000; stroke-width: 0.8"/>
      </g>
     </g>
     <g id="text_6">
      <!-- 9 -->
      <g transform="translate(269.198205 349.523238)scale(0.1 -0.1)">
       <defs>
        <path id="DejaVuSans-39" d="M 703 97 
L 703 672 
Q 941 559 1184 500 
Q 1428 441 1663 441 
Q 2288 441 2617 861 
Q 2947 1281 2994 2138 
Q 2813 1869 2534 1725 
Q 2256 1581 1919 1581 
Q 1219 1581 811 2004 
Q 403 2428 403 3163 
Q 403 3881 828 4315 
Q 1253 4750 1959 4750 
Q 2769 4750 3195 4129 
Q 3622 3509 3622 2328 
Q 3622 1225 3098 567 
Q 2575 -91 1691 -91 
Q 1453 -91 1209 -44 
Q 966 3 703 97 
z
M 1959 2075 
Q 2384 2075 2632 2365 
Q 2881 2656 2881 3163 
Q 2881 3666 2632 3958 
Q 2384 4250 1959 4250 
Q 1534 4250 1286 3958 
Q 1038 3666 1038 3163 
Q 1038 2656 1286 2365 
Q 1534 2075 1959 2075 
z
" transform="scale(0.015625)"/>
       </defs>
       <use xlink:href="#DejaVuSans-39"/>
      </g>
     </g>
    </g>
   </g>
   <g id="matplotlib.axis_2">
    <g id="ytick_1">
     <g id="line2d_8">
      <defs>
       <path id="m43d8fd5289" d="M 0 0 
L -3.5 0 
" style="stroke: #000000; stroke-width: 0.8"/>
      </defs>
      <g>
       <use xlink:href="#m43d8fd5289" x="24.19" y="320.742545" style="stroke: #000000; stroke-width: 0.8"/>
      </g>
     </g>
     <g id="text_7">
      <!-- 2 -->
      <g transform="translate(10.8275 324.541764)scale(0.1 -0.1)">
       <defs>
        <path id="DejaVuSans-32" d="M 1228 531 
L 3431 531 
L 3431 0 
L 469 0 
L 469 531 
Q 828 903 1448 1529 
Q 2069 2156 2228 2338 
Q 2531 2678 2651 2914 
Q 2772 3150 2772 3378 
Q 2772 3750 2511 3984 
Q 2250 4219 1831 4219 
Q 1534 4219 1204 4116 
Q 875 4013 500 3803 
L 500 4441 
Q 881 4594 1212 4672 
Q 1544 4750 1819 4750 
Q 2544 4750 2975 4387 
Q 3406 4025 3406 3419 
Q 3406 3131 3298 2873 
Q 3191 2616 2906 2266 
Q 2828 2175 2409 1742 
Q 1991 1309 1228 531 
z
" transform="scale(0.015625)"/>
       </defs>
       <use xlink:href="#DejaVuSans-32"/>
      </g>
     </g>
    </g>
    <g id="ytick_2">
     <g id="line2d_9">
      <g>
       <use xlink:href="#m43d8fd5289" x="24.19" y="273.468364" style="stroke: #000000; stroke-width: 0.8"/>
      </g>
     </g>
     <g id="text_8">
      <!-- 3 -->
      <g transform="translate(10.8275 277.267582)scale(0.1 -0.1)">
       <defs>
        <path id="DejaVuSans-33" d="M 2597 2516 
Q 3050 2419 3304 2112 
Q 3559 1806 3559 1356 
Q 3559 666 3084 287 
Q 2609 -91 1734 -91 
Q 1441 -91 1130 -33 
Q 819 25 488 141 
L 488 750 
Q 750 597 1062 519 
Q 1375 441 1716 441 
Q 2309 441 2620 675 
Q 2931 909 2931 1356 
Q 2931 1769 2642 2001 
Q 2353 2234 1838 2234 
L 1294 2234 
L 1294 2753 
L 1863 2753 
Q 2328 2753 2575 2939 
Q 2822 3125 2822 3475 
Q 2822 3834 2567 4026 
Q 2313 4219 1838 4219 
Q 1578 4219 1281 4162 
Q 984 4106 628 3988 
L 628 4550 
Q 988 4650 1302 4700 
Q 1616 4750 1894 4750 
Q 2613 4750 3031 4423 
Q 3450 4097 3450 3541 
Q 3450 3153 3228 2886 
Q 3006 2619 2597 2516 
z
" transform="scale(0.015625)"/>
       </defs>
       <use xlink:href="#DejaVuSans-33"/>
      </g>
     </g>
    </g>
    <g id="ytick_3">
     <g id="line2d_10">
      <g>
       <use xlink:href="#m43d8fd5289" x="24.19" y="226.194182" style="stroke: #000000; stroke-width: 0.8"/>
      </g>
     </g>
     <g id="text_9">
      <!-- 4 -->
      <g transform="translate(10.8275 229.993401)scale(0.1 -0.1)">
       <use xlink:href="#DejaVuSans-34"/>
      </g>
     </g>
    </g>
    <g id="ytick_4">
     <g id="line2d_11">
      <g>
       <use xlink:href="#m43d8fd5289" x="24.19" y="178.92" style="stroke: #000000; stroke-width: 0.8"/>
      </g>
     </g>
     <g id="text_10">
      <!-- 5 -->
      <g transform="translate(10.8275 182.719219)scale(0.1 -0.1)">
       <use xlink:href="#DejaVuSans-35"/>
      </g>
     </g>
    </g>
    <g id="ytick_5">
     <g id="line2d_12">
      <g>
       <use xlink:href="#m43d8fd5289" x="24.19" y="131.645818" style="stroke: #000000; stroke-width: 0.8"/>
      </g>
     </g>
     <g id="text_11">
      <!-- 6 -->
      <g transform="translate(10.8275 135.445037)scale(0.1 -0.1)">
       <use xlink:href="#DejaVuSans-36"/>
      </g>
     </g>
    </g>
    <g id="ytick_6">
     <g id="line2d_13">
      <g>
       <use xlink:href="#m43d8fd5289" x="24.19" y="84.371636" style="stroke: #000000; stroke-width: 0.8"/>
      </g>
     </g>
     <g id="text_12">
      <!-- 7 -->
      <g transform="translate(10.8275 88.170855)scale(0.1 -0.1)">
       <use xlink:href="#DejaVuSans-37"/>
      </g>
     </g>
    </g>
    <g id="ytick_7">
     <g id="line2d_14">
      <g>
       <use xlink:href="#m43d8fd5289" x="24.19" y="37.097455" style="stroke: #000000; stroke-width: 0.8"/>
      </g>
     </g>
     <g id="text_13">
      <!-- 8 -->
      <g transform="translate(10.8275 40.896673)scale(0.1 -0.1)">
       <use xlink:href="#DejaVuSans-38"/>
      </g>
     </g>
    </g>
   </g>
   <g id="line2d_15"/>
   <g id="LineCollection_1">
    <path d="M 106.919818 226.194182 
L 83.282727 226.194182 
" clip-path="url(#p9c6b393a12)" style="fill: none; stroke: #e299ff; stroke-width: 3"/>
    <path d="M 130.556909 226.194182 
L 106.919818 226.194182 
" clip-path="url(#p9c6b393a12)" style="fill: none; stroke: #e299ff; stroke-width: 3"/>
    <path d="M 154.194 226.194182 
L 130.556909 226.194182 
" clip-path="url(#p9c6b393a12)" style="fill: none; stroke: #e299ff; stroke-width: 3"/>
    <path d="M 177.831091 226.194182 
L 154.194 226.194182 
" clip-path="url(#p9c6b393a12)" style="fill: none; stroke: #e299ff; stroke-width: 3"/>
    <path d="M 201.468182 226.194182 
L 177.831091 226.194182 
" clip-path="url(#p9c6b393a12)" style="fill: none; stroke: #e299ff; stroke-width: 3"/>
    <path d="M 225.105273 226.194182 
L 201.468182 226.194182 
" clip-path="url(#p9c6b393a12)" style="fill: none; stroke: #e299ff; stroke-width: 3"/>
    <path d="M 248.742364 226.194182 
L 225.105273 226.194182 
" clip-path="url(#p9c6b393a12)" style="fill: none; stroke: #e299ff; stroke-width: 3"/>
    <path d="M 272.379455 226.194182 
L 248.742364 226.194182 
" clip-path="url(#p9c6b393a12)" style="fill: none; stroke: #e299ff; stroke-width: 3"/>
    <path d="M 272.379455 226.194182 
L 272.379455 202.557091 
" clip-path="url(#p9c6b393a12)" style="fill: none; stroke: #e299ff; stroke-width: 3"/>
    <path d="M 272.379455 202.557091 
L 272.379455 178.92 
" clip-path="url(#p9c6b393a12)" style="fill: none; stroke: #e299ff; stroke-width: 3"/>
    <path d="M 272.379455 178.92 
L 272.379455 155.282909 
" clip-path="url(#p9c6b393a12)" style="fill: none; stroke: #e299ff; stroke-width: 3"/>
    <path d="M 272.379455 155.282909 
L 272.379455 131.645818 
" clip-path="url(#p9c6b393a12)" style="fill: none; stroke: #e299ff; stroke-width: 3"/>
    <path d="M 106.919818 131.645818 
L 83.282727 131.645818 
" clip-path="url(#p9c6b393a12)" style="fill: none; stroke: #e299ff; stroke-width: 3"/>
    <path d="M 130.556909 131.645818 
L 106.919818 131.645818 
" clip-path="url(#p9c6b393a12)" style="fill: none; stroke: #e299ff; stroke-width: 3"/>
    <path d="M 154.194 131.645818 
L 130.556909 131.645818 
" clip-path="url(#p9c6b393a12)" style="fill: none; stroke: #e299ff; stroke-width: 3"/>
    <path d="M 177.831091 131.645818 
L 154.194 131.645818 
" clip-path="url(#p9c6b393a12)" style="fill: none; stroke: #e299ff; stroke-width: 3"/>
    <path d="M 201.468182 131.645818 
L 177.831091 131.645818 
" clip-path="url(#p9c6b393a12)" style="fill: none; stroke: #e299ff; stroke-width: 3"/>
    <path d="M 225.105273 131.645818 
L 201.468182 131.645818 
" clip-path="url(#p9c6b393a12)" style="fill: none; stroke: #e299ff; stroke-width: 3"/>
    <path d="M 248.742364 131.645818 
L 225.105273 131.645818 
" clip-path="url(#p9c6b393a12)" style="fill: none; stroke: #e299ff; stroke-width: 3"/>
    <path d="M 272.379455 131.645818 
L 248.742364 131.645818 
" clip-path="url(#p9c6b393a12)" style="fill: none; stroke: #e299ff; stroke-width: 3"/>
    <path d="M 59.645636 320.742545 
L 36.008545 320.742545 
" clip-path="url(#p9c6b393a12)" style="fill: none; stroke: #007dff; stroke-width: 3"/>
    <path d="M 83.282727 320.742545 
L 59.645636 320.742545 
" clip-path="url(#p9c6b393a12)" style="fill: none; stroke: #007dff; stroke-width: 3"/>
    <path d="M 83.282727 320.742545 
L 83.282727 297.105455 
" clip-path="url(#p9c6b393a12)" style="fill: none; stroke: #007dff; stroke-width: 3"/>
    <path d="M 83.282727 297.105455 
L 83.282727 273.468364 
" clip-path="url(#p9c6b393a12)" style="fill: none; stroke: #007dff; stroke-width: 3"/>
    <path d="M 83.282727 273.468364 
L 83.282727 249.831273 
" clip-path="url(#p9c6b393a12)" style="fill: none; stroke: #007dff; stroke-width: 3"/>
    <path d="M 83.282727 249.831273 
L 83.282727 226.194182 
" clip-path="url(#p9c6b393a12)" style="fill: none; stroke: #007dff; stroke-width: 3"/>
    <path d="M 83.282727 131.645818 
L 83.282727 108.008727 
" clip-path="url(#p9c6b393a12)" style="fill: none; stroke: #007dff; stroke-width: 3"/>
    <path d="M 83.282727 108.008727 
L 83.282727 84.371636 
" clip-path="url(#p9c6b393a12)" style="fill: none; stroke: #007dff; stroke-width: 3"/>
    <path d="M 83.282727 84.371636 
L 83.282727 60.734545 
" clip-path="url(#p9c6b393a12)" style="fill: none; stroke: #007dff; stroke-width: 3"/>
    <path d="M 83.282727 60.734545 
L 83.282727 37.097455 
" clip-path="url(#p9c6b393a12)" style="fill: none; stroke: #007dff; stroke-width: 3"/>
    <path d="M 59.645636 37.097455 
L 36.008545 37.097455 
" clip-path="url(#p9c6b393a12)" style="fill: none; stroke: #007dff; stroke-width: 3"/>
    <path d="M 83.282727 37.097455 
L 59.645636 37.097455 
" clip-path="url(#p9c6b393a12)" style="fill: none; stroke: #007dff; stroke-width: 3"/>
    <path d="M 36.008545 320.742545 
L 36.008545 297.105455 
" clip-path="url(#p9c6b393a12)" style="fill: none; stroke: #007dff; stroke-width: 3"/>
    <path d="M 36.008545 297.105455 
L 36.008545 273.468364 
" clip-path="url(#p9c6b393a12)" style="fill: none; stroke: #007dff; stroke-width: 3"/>
    <path d="M 36.008545 273.468364 
L 36.008545 249.831273 
" clip-path="url(#p9c6b393a12)" style="fill: none; stroke: #007dff; stroke-width: 3"/>
    <path d="M 36.008545 249.831273 
L 36.008545 226.194182 
" clip-path="url(#p9c6b393a12)" style="fill: none; stroke: #007dff; stroke-width: 3"/>
    <path d="M 36.008545 226.194182 
L 36.008545 202.557091 
" clip-path="url(#p9c6b393a12)" style="fill: none; stroke: #007dff; stroke-width: 3"/>
    <path d="M 36.008545 202.557091 
L 36.008545 178.92 
" clip-path="url(#p9c6b393a12)" style="fill: none; stroke: #007dff; stroke-width: 3"/>
    <path d="M 36.008545 178.92 
L 36.008545 155.282909 
" clip-path="url(#p9c6b393a12)" style="fill: none; stroke: #007dff; stroke-width: 3"/>
    <path d="M 36.008545 155.282909 
L 36.008545 131.645818 
" clip-path="url(#p9c6b393a12)" style="fill: none; stroke: #007dff; stroke-width: 3"/>
    <path d="M 36.008545 131.645818 
L 36.008545 108.008727 
" clip-path="url(#p9c6b393a12)" style="fill: none; stroke: #007dff; stroke-width: 3"/>
    <path d="M 36.008545 108.008727 
L 36.008545 84.371636 
" clip-path="url(#p9c6b393a12)" style="fill: none; stroke: #007dff; stroke-width: 3"/>
    <path d="M 36.008545 84.371636 
L 36.008545 60.734545 
" clip-path="url(#p9c6b393a12)" style="fill: none; stroke: #007dff; stroke-width: 3"/>
    <path d="M 36.008545 60.734545 
L 36.008545 37.097455 
" clip-path="url(#p9c6b393a12)" style="fill: none; stroke: #007dff; stroke-width: 3"/>
   </g>
   <g id="line2d_16">
    <path d="M 36.008545 320.742545 
" clip-path="url(#p9c6b393a12)" style="fill: none; stroke: #ff0000; stroke-width: 1.5; stroke-linecap: square"/>
   </g>
   <g id="line2d_17">
    <path d="M 36.008545 320.742545 
" clip-path="url(#p9c6b393a12)" style="fill: none; stroke: #00ff00; stroke-width: 1.5; stroke-linecap: square"/>
   </g>
   <g id="line2d_18">
    <path d="M 36.008545 320.742545 
" clip-path="url(#p9c6b393a12)" style="fill: none; stroke: #0000ff; stroke-width: 1.5; stroke-linecap: square"/>
   </g>
   <g id="line2d_19">
    <path d="M 36.008545 320.742545 
" clip-path="url(#p9c6b393a12)" style="fill: none; stroke: #00cfff; stroke-width: 1.5; stroke-linecap: square"/>
   </g>
   <g id="line2d_20">
    <path d="M 36.008545 320.742545 
" clip-path="url(#p9c6b393a12)" style="fill: none; stroke: #e299ff; stroke-width: 1.5; stroke-linecap: square"/>
   </g>
   <g id="line2d_21">
    <path d="M 36.008545 320.742545 
" clip-path="url(#p9c6b393a12)" style="fill: none; stroke: #a08300; stroke-width: 1.5; stroke-linecap: square"/>
   </g>
   <g id="line2d_22">
    <path d="M 36.008545 320.742545 
" clip-path="url(#p9c6b393a12)" style="fill: none; stroke: #009164; stroke-width: 1.5; stroke-linecap: square"/>
   </g>
   <g id="line2d_23">
    <path d="M 36.008545 320.742545 
" clip-path="url(#p9c6b393a12)" style="fill: none; stroke: #007dff; stroke-width: 1.5; stroke-linecap: square"/>
   </g>
   <g id="patch_3">
    <path d="M 24.19 334.9248 
L 24.19 22.9152 
" style="fill: none; stroke: #000000; stroke-width: 0.8; stroke-linejoin: miter; stroke-linecap: square"/>
   </g>
   <g id="patch_4">
    <path d="M 284.198 334.9248 
L 284.198 22.9152 
" style="fill: none; stroke: #000000; stroke-width: 0.8; stroke-linejoin: miter; stroke-linecap: square"/>
   </g>
   <g id="patch_5">
    <path d="M 24.19 334.9248 
L 284.198 334.9248 
" style="fill: none; stroke: #000000; stroke-width: 0.8; stroke-linejoin: miter; stroke-linecap: square"/>
   </g>
   <g id="patch_6">
    <path d="M 24.19 22.9152 
L 284.198 22.9152 
" style="fill: none; stroke: #000000; stroke-width: 0.8; stroke-linejoin: miter; stroke-linecap: square"/>
   </g>
  </g>
  <g id="axes_2">
   <g id="patch_7">
    <path d="M 300.4485 343.08 
L 316.8645 343.08 
L 316.8645 14.76 
L 300.4485 14.76 
z
" style="fill: #ffffff"/>
   </g>
   <g id="patch_8">
    <path clip-path="url(#p6c03ad100b)" style="fill: #ffffff; stroke: #ffffff; stroke-width: 0.01; stroke-linejoin: miter"/>
   </g>
   <g id="QuadMesh_1">
    <path d="M 300.4485 343.08 
L 316.8645 343.08 
L 316.8645 277.416 
L 300.4485 277.416 
L 300.4485 343.08 
" clip-path="url(#p6c03ad100b)" style="fill: #d99999"/>
    <path d="M 300.4485 277.416 
L 316.8645 277.416 
L 316.8645 211.752 
L 300.4485 211.752 
L 300.4485 277.416 
" clip-path="url(#p6c03ad100b)" style="fill: #99d999"/>
    <path d="M 300.4485 211.752 
L 316.8645 211.752 
L 316.8645 146.088 
L 300.4485 146.088 
L 300.4485 211.752 
" clip-path="url(#p6c03ad100b)" style="fill: #9999d9"/>
    <path d="M 300.4485 146.088 
L 316.8645 146.088 
L 316.8645 80.424 
L 300.4485 80.424 
L 300.4485 146.088 
" clip-path="url(#p6c03ad100b)" style="fill: #00e0ff"/>
    <path d="M 300.4485 80.424 
L 316.8645 80.424 
L 316.8645 14.76 
L 300.4485 14.76 
L 300.4485 80.424 
" clip-path="url(#p6c03ad100b)" style="fill: #ffb353"/>
   </g>
   <g id="matplotlib.axis_3">
    <g id="ytick_8">
     <g id="line2d_24">
      <defs>
       <path id="m74a7ad3245" d="M 0 0 
L 3.5 0 
" style="stroke: #000000; stroke-width: 0.8"/>
      </defs>
      <g>
       <use xlink:href="#m74a7ad3245" x="316.8645" y="343.08" style="stroke: #000000; stroke-width: 0.8"/>
      </g>
     </g>
     <g id="text_14">
      <!-- 1 -->
      <g transform="translate(323.8645 346.879219)scale(0.1 -0.1)">
       <defs>
        <path id="DejaVuSans-31" d="M 794 531 
L 1825 531 
L 1825 4091 
L 703 3866 
L 703 4441 
L 1819 4666 
L 2450 4666 
L 2450 531 
L 3481 531 
L 3481 0 
L 794 0 
L 794 531 
z
" transform="scale(0.015625)"/>
       </defs>
       <use xlink:href="#DejaVuSans-31"/>
      </g>
     </g>
    </g>
    <g id="ytick_9">
     <g id="line2d_25">
      <g>
       <use xlink:href="#m74a7ad3245" x="316.8645" y="261" style="stroke: #000000; stroke-width: 0.8"/>
      </g>
     </g>
     <g id="text_15">
      <!-- 2 -->
      <g transform="translate(323.8645 264.799219)scale(0.1 -0.1)">
       <use xlink:href="#DejaVuSans-32"/>
      </g>
     </g>
    </g>
    <g id="ytick_10">
     <g id="line2d_26">
      <g>
       <use xlink:href="#m74a7ad3245" x="316.8645" y="178.92" style="stroke: #000000; stroke-width: 0.8"/>
      </g>
     </g>
     <g id="text_16">
      <!-- 3 -->
      <g transform="translate(323.8645 182.719219)scale(0.1 -0.1)">
       <use xlink:href="#DejaVuSans-33"/>
      </g>
     </g>
    </g>
    <g id="ytick_11">
     <g id="line2d_27">
      <g>
       <use xlink:href="#m74a7ad3245" x="316.8645" y="96.84" style="stroke: #000000; stroke-width: 0.8"/>
      </g>
     </g>
     <g id="text_17">
      <!-- 4 -->
      <g transform="translate(323.8645 100.639219)scale(0.1 -0.1)">
       <use xlink:href="#DejaVuSans-34"/>
      </g>
     </g>
    </g>
    <g id="ytick_12">
     <g id="line2d_28">
      <g>
       <use xlink:href="#m74a7ad3245" x="316.8645" y="14.76" style="stroke: #000000; stroke-width: 0.8"/>
      </g>
     </g>
     <g id="text_18">
      <!-- 5 -->
      <g transform="translate(323.8645 18.559219)scale(0.1 -0.1)">
       <use xlink:href="#DejaVuSans-35"/>
      </g>
     </g>
    </g>
   </g>
   <g id="LineCollection_2"/>
   <g id="patch_9">
    <path d="M 300.4485 343.08 
L 308.6565 343.08 
L 316.8645 343.08 
L 316.8645 14.76 
L 308.6565 14.76 
L 300.4485 14.76 
L 300.4485 343.08 
z
" style="fill: none; stroke: #000000; stroke-width: 0.8; stroke-linejoin: miter; stroke-linecap: square"/>
   </g>
  </g>
 </g>
 <defs>
  <clipPath id="p9c6b393a12">
   <rect x="24.19" y="22.9152" width="260.008" height="312.0096"/>
  </clipPath>
  <clipPath id="p6c03ad100b">
   <rect x="300.4485" y="14.76" width="16.416" height="328.32"/>
  </clipPath>
 </defs>
</svg>
