<?xml version="1.0" encoding="utf-8" standalone="no"?>
<!DOCTYPE svg PUBLIC "-//W3C//DTD SVG 1.1//EN"
  "http://www.w3.org/Graphics/SVG/1.1/DTD/svg11.dtd">
<!-- Created with matplotlib (https://matplotlib.org/) -->
<svg height="345.6pt" version="1.1" viewBox="0 0 460.8 345.6" width="460.8pt" xmlns="http://www.w3.org/2000/svg" xmlns:xlink="http://www.w3.org/1999/xlink">
 <metadata>
  <rdf:RDF xmlns:cc="http://creativecommons.org/ns#" xmlns:dc="http://purl.org/dc/elements/1.1/" xmlns:rdf="http://www.w3.org/1999/02/22-rdf-syntax-ns#">
   <cc:Work>
    <dc:type rdf:resource="http://purl.org/dc/dcmitype/StillImage"/>
    <dc:date>2021-03-30T18:50:07.239028</dc:date>
    <dc:format>image/svg+xml</dc:format>
    <dc:creator>
     <cc:Agent>
      <dc:title>Matplotlib v3.3.4, https://matplotlib.org/</dc:title>
     </cc:Agent>
    </dc:creator>
   </cc:Work>
  </rdf:RDF>
 </metadata>
 <defs>
  <style type="text/css">*{stroke-linecap:butt;stroke-linejoin:round;}</style>
 </defs>
 <g id="figure_1">
  <g id="patch_1">
   <path d="M 0 345.6 
L 460.8 345.6 
L 460.8 0 
L 0 0 
z
" style="fill:#ffffff;"/>
  </g>
  <g id="axes_1">
   <g id="patch_2">
    <path d="M 80.350222 317.72 
L 380.449778 317.72 
L 380.449778 10.8 
L 80.350222 10.8 
z
" style="fill:#ffffff;"/>
   </g>
   <g id="matplotlib.axis_1">
    <g id="xtick_1">
     <g id="line2d_1">
      <defs>
       <path d="M 0 0 
L 0 3.5 
" id="mb0d91ff734" style="stroke:#000000;stroke-width:0.8;"/>
      </defs>
      <g>
       <use style="stroke:#000000;stroke-width:0.8;" x="93.991111" xlink:href="#mb0d91ff734" y="317.72"/>
      </g>
     </g>
     <g id="text_1">
      <!-- 0.0 -->
      <g transform="translate(86.039549 332.318437)scale(0.1 -0.1)">
       <defs>
        <path d="M 31.78125 66.40625 
Q 24.171875 66.40625 20.328125 58.90625 
Q 16.5 51.421875 16.5 36.375 
Q 16.5 21.390625 20.328125 13.890625 
Q 24.171875 6.390625 31.78125 6.390625 
Q 39.453125 6.390625 43.28125 13.890625 
Q 47.125 21.390625 47.125 36.375 
Q 47.125 51.421875 43.28125 58.90625 
Q 39.453125 66.40625 31.78125 66.40625 
z
M 31.78125 74.21875 
Q 44.046875 74.21875 50.515625 64.515625 
Q 56.984375 54.828125 56.984375 36.375 
Q 56.984375 17.96875 50.515625 8.265625 
Q 44.046875 -1.421875 31.78125 -1.421875 
Q 19.53125 -1.421875 13.0625 8.265625 
Q 6.59375 17.96875 6.59375 36.375 
Q 6.59375 54.828125 13.0625 64.515625 
Q 19.53125 74.21875 31.78125 74.21875 
z
" id="DejaVuSans-48"/>
        <path d="M 10.6875 12.40625 
L 21 12.40625 
L 21 0 
L 10.6875 0 
z
" id="DejaVuSans-46"/>
       </defs>
       <use xlink:href="#DejaVuSans-48"/>
       <use x="63.623047" xlink:href="#DejaVuSans-46"/>
       <use x="95.410156" xlink:href="#DejaVuSans-48"/>
      </g>
     </g>
    </g>
    <g id="xtick_2">
     <g id="line2d_2">
      <g>
       <use style="stroke:#000000;stroke-width:0.8;" x="148.554667" xlink:href="#mb0d91ff734" y="317.72"/>
      </g>
     </g>
     <g id="text_2">
      <!-- 0.1 -->
      <g transform="translate(140.603104 332.318437)scale(0.1 -0.1)">
       <defs>
        <path d="M 12.40625 8.296875 
L 28.515625 8.296875 
L 28.515625 63.921875 
L 10.984375 60.40625 
L 10.984375 69.390625 
L 28.421875 72.90625 
L 38.28125 72.90625 
L 38.28125 8.296875 
L 54.390625 8.296875 
L 54.390625 0 
L 12.40625 0 
z
" id="DejaVuSans-49"/>
       </defs>
       <use xlink:href="#DejaVuSans-48"/>
       <use x="63.623047" xlink:href="#DejaVuSans-46"/>
       <use x="95.410156" xlink:href="#DejaVuSans-49"/>
      </g>
     </g>
    </g>
    <g id="xtick_3">
     <g id="line2d_3">
      <g>
       <use style="stroke:#000000;stroke-width:0.8;" x="203.118222" xlink:href="#mb0d91ff734" y="317.72"/>
      </g>
     </g>
     <g id="text_3">
      <!-- 0.2 -->
      <g transform="translate(195.16666 332.318437)scale(0.1 -0.1)">
       <defs>
        <path d="M 19.1875 8.296875 
L 53.609375 8.296875 
L 53.609375 0 
L 7.328125 0 
L 7.328125 8.296875 
Q 12.9375 14.109375 22.625 23.890625 
Q 32.328125 33.6875 34.8125 36.53125 
Q 39.546875 41.84375 41.421875 45.53125 
Q 43.3125 49.21875 43.3125 52.78125 
Q 43.3125 58.59375 39.234375 62.25 
Q 35.15625 65.921875 28.609375 65.921875 
Q 23.96875 65.921875 18.8125 64.3125 
Q 13.671875 62.703125 7.8125 59.421875 
L 7.8125 69.390625 
Q 13.765625 71.78125 18.9375 73 
Q 24.125 74.21875 28.421875 74.21875 
Q 39.75 74.21875 46.484375 68.546875 
Q 53.21875 62.890625 53.21875 53.421875 
Q 53.21875 48.921875 51.53125 44.890625 
Q 49.859375 40.875 45.40625 35.40625 
Q 44.1875 33.984375 37.640625 27.21875 
Q 31.109375 20.453125 19.1875 8.296875 
z
" id="DejaVuSans-50"/>
       </defs>
       <use xlink:href="#DejaVuSans-48"/>
       <use x="63.623047" xlink:href="#DejaVuSans-46"/>
       <use x="95.410156" xlink:href="#DejaVuSans-50"/>
      </g>
     </g>
    </g>
    <g id="xtick_4">
     <g id="line2d_4">
      <g>
       <use style="stroke:#000000;stroke-width:0.8;" x="257.681778" xlink:href="#mb0d91ff734" y="317.72"/>
      </g>
     </g>
     <g id="text_4">
      <!-- 0.3 -->
      <g transform="translate(249.730215 332.318437)scale(0.1 -0.1)">
       <defs>
        <path d="M 40.578125 39.3125 
Q 47.65625 37.796875 51.625 33 
Q 55.609375 28.21875 55.609375 21.1875 
Q 55.609375 10.40625 48.1875 4.484375 
Q 40.765625 -1.421875 27.09375 -1.421875 
Q 22.515625 -1.421875 17.65625 -0.515625 
Q 12.796875 0.390625 7.625 2.203125 
L 7.625 11.71875 
Q 11.71875 9.328125 16.59375 8.109375 
Q 21.484375 6.890625 26.8125 6.890625 
Q 36.078125 6.890625 40.9375 10.546875 
Q 45.796875 14.203125 45.796875 21.1875 
Q 45.796875 27.640625 41.28125 31.265625 
Q 36.765625 34.90625 28.71875 34.90625 
L 20.21875 34.90625 
L 20.21875 43.015625 
L 29.109375 43.015625 
Q 36.375 43.015625 40.234375 45.921875 
Q 44.09375 48.828125 44.09375 54.296875 
Q 44.09375 59.90625 40.109375 62.90625 
Q 36.140625 65.921875 28.71875 65.921875 
Q 24.65625 65.921875 20.015625 65.03125 
Q 15.375 64.15625 9.8125 62.3125 
L 9.8125 71.09375 
Q 15.4375 72.65625 20.34375 73.4375 
Q 25.25 74.21875 29.59375 74.21875 
Q 40.828125 74.21875 47.359375 69.109375 
Q 53.90625 64.015625 53.90625 55.328125 
Q 53.90625 49.265625 50.4375 45.09375 
Q 46.96875 40.921875 40.578125 39.3125 
z
" id="DejaVuSans-51"/>
       </defs>
       <use xlink:href="#DejaVuSans-48"/>
       <use x="63.623047" xlink:href="#DejaVuSans-46"/>
       <use x="95.410156" xlink:href="#DejaVuSans-51"/>
      </g>
     </g>
    </g>
    <g id="xtick_5">
     <g id="line2d_5">
      <g>
       <use style="stroke:#000000;stroke-width:0.8;" x="312.245333" xlink:href="#mb0d91ff734" y="317.72"/>
      </g>
     </g>
     <g id="text_5">
      <!-- 0.4 -->
      <g transform="translate(304.293771 332.318437)scale(0.1 -0.1)">
       <defs>
        <path d="M 37.796875 64.3125 
L 12.890625 25.390625 
L 37.796875 25.390625 
z
M 35.203125 72.90625 
L 47.609375 72.90625 
L 47.609375 25.390625 
L 58.015625 25.390625 
L 58.015625 17.1875 
L 47.609375 17.1875 
L 47.609375 0 
L 37.796875 0 
L 37.796875 17.1875 
L 4.890625 17.1875 
L 4.890625 26.703125 
z
" id="DejaVuSans-52"/>
       </defs>
       <use xlink:href="#DejaVuSans-48"/>
       <use x="63.623047" xlink:href="#DejaVuSans-46"/>
       <use x="95.410156" xlink:href="#DejaVuSans-52"/>
      </g>
     </g>
    </g>
    <g id="xtick_6">
     <g id="line2d_6">
      <g>
       <use style="stroke:#000000;stroke-width:0.8;" x="366.808889" xlink:href="#mb0d91ff734" y="317.72"/>
      </g>
     </g>
     <g id="text_6">
      <!-- 0.5 -->
      <g transform="translate(358.857326 332.318437)scale(0.1 -0.1)">
       <defs>
        <path d="M 10.796875 72.90625 
L 49.515625 72.90625 
L 49.515625 64.59375 
L 19.828125 64.59375 
L 19.828125 46.734375 
Q 21.96875 47.46875 24.109375 47.828125 
Q 26.265625 48.1875 28.421875 48.1875 
Q 40.625 48.1875 47.75 41.5 
Q 54.890625 34.8125 54.890625 23.390625 
Q 54.890625 11.625 47.5625 5.09375 
Q 40.234375 -1.421875 26.90625 -1.421875 
Q 22.3125 -1.421875 17.546875 -0.640625 
Q 12.796875 0.140625 7.71875 1.703125 
L 7.71875 11.625 
Q 12.109375 9.234375 16.796875 8.0625 
Q 21.484375 6.890625 26.703125 6.890625 
Q 35.15625 6.890625 40.078125 11.328125 
Q 45.015625 15.765625 45.015625 23.390625 
Q 45.015625 31 40.078125 35.4375 
Q 35.15625 39.890625 26.703125 39.890625 
Q 22.75 39.890625 18.8125 39.015625 
Q 14.890625 38.140625 10.796875 36.28125 
z
" id="DejaVuSans-53"/>
       </defs>
       <use xlink:href="#DejaVuSans-48"/>
       <use x="63.623047" xlink:href="#DejaVuSans-46"/>
       <use x="95.410156" xlink:href="#DejaVuSans-53"/>
      </g>
     </g>
    </g>
   </g>
   <g id="matplotlib.axis_2"/>
   <g id="line2d_7">
    <path clip-path="url(#p45dd470b97)" d="M 93.991111 290.438222 
L 93.991111 276.797333 
" style="fill:none;stroke:#000000;stroke-linecap:square;stroke-width:0.5;"/>
   </g>
   <g id="line2d_8">
    <path clip-path="url(#p45dd470b97)" d="M 99.447467 290.438222 
L 99.447467 276.797333 
" style="fill:none;stroke:#000000;stroke-linecap:square;stroke-width:0.5;"/>
   </g>
   <g id="line2d_9">
    <path clip-path="url(#p45dd470b97)" d="M 93.991111 283.617778 
L 99.447467 283.617778 
" style="fill:none;stroke:#99d999;stroke-linecap:square;stroke-width:3;"/>
   </g>
   <g id="line2d_10">
    <path clip-path="url(#p45dd470b97)" d="M 99.447467 290.438222 
L 99.447467 276.797333 
" style="fill:none;stroke:#000000;stroke-linecap:square;stroke-width:0.5;"/>
   </g>
   <g id="line2d_11">
    <path clip-path="url(#p45dd470b97)" d="M 104.903822 290.438222 
L 104.903822 276.797333 
" style="fill:none;stroke:#000000;stroke-linecap:square;stroke-width:0.5;"/>
   </g>
   <g id="line2d_12">
    <path clip-path="url(#p45dd470b97)" d="M 99.447467 283.617778 
L 104.903822 283.617778 
" style="fill:none;stroke:#99d999;stroke-linecap:square;stroke-width:3;"/>
   </g>
   <g id="line2d_13">
    <path clip-path="url(#p45dd470b97)" d="M 104.903822 290.438222 
L 104.903822 276.797333 
" style="fill:none;stroke:#000000;stroke-linecap:square;stroke-width:0.5;"/>
   </g>
   <g id="line2d_14">
    <path clip-path="url(#p45dd470b97)" d="M 110.360178 290.438222 
L 110.360178 276.797333 
" style="fill:none;stroke:#000000;stroke-linecap:square;stroke-width:0.5;"/>
   </g>
   <g id="line2d_15">
    <path clip-path="url(#p45dd470b97)" d="M 104.903822 283.617778 
L 110.360178 283.617778 
" style="fill:none;stroke:#99d999;stroke-linecap:square;stroke-width:3;"/>
   </g>
   <g id="line2d_16">
    <path clip-path="url(#p45dd470b97)" d="M 110.360178 290.438222 
L 110.360178 276.797333 
" style="fill:none;stroke:#000000;stroke-linecap:square;stroke-width:0.5;"/>
   </g>
   <g id="line2d_17">
    <path clip-path="url(#p45dd470b97)" d="M 115.816533 290.438222 
L 115.816533 276.797333 
" style="fill:none;stroke:#000000;stroke-linecap:square;stroke-width:0.5;"/>
   </g>
   <g id="line2d_18">
    <path clip-path="url(#p45dd470b97)" d="M 110.360178 283.617778 
L 115.816533 283.617778 
" style="fill:none;stroke:#99d999;stroke-linecap:square;stroke-width:3;"/>
   </g>
   <g id="line2d_19">
    <path clip-path="url(#p45dd470b97)" d="M 115.816533 290.438222 
L 115.816533 276.797333 
" style="fill:none;stroke:#000000;stroke-linecap:square;stroke-width:0.5;"/>
   </g>
   <g id="line2d_20">
    <path clip-path="url(#p45dd470b97)" d="M 121.272889 290.438222 
L 121.272889 276.797333 
" style="fill:none;stroke:#000000;stroke-linecap:square;stroke-width:0.5;"/>
   </g>
   <g id="line2d_21">
    <path clip-path="url(#p45dd470b97)" d="M 115.816533 283.617778 
L 121.272889 283.617778 
" style="fill:none;stroke:#99d999;stroke-linecap:square;stroke-width:3;"/>
   </g>
   <g id="line2d_22">
    <path clip-path="url(#p45dd470b97)" d="M 121.272889 290.438222 
L 121.272889 276.797333 
" style="fill:none;stroke:#000000;stroke-linecap:square;stroke-width:0.5;"/>
   </g>
   <g id="line2d_23">
    <path clip-path="url(#p45dd470b97)" d="M 126.729244 290.438222 
L 126.729244 276.797333 
" style="fill:none;stroke:#000000;stroke-linecap:square;stroke-width:0.5;"/>
   </g>
   <g id="line2d_24">
    <path clip-path="url(#p45dd470b97)" d="M 121.272889 283.617778 
L 126.729244 283.617778 
" style="fill:none;stroke:#99d999;stroke-linecap:square;stroke-width:3;"/>
   </g>
   <g id="line2d_25">
    <path clip-path="url(#p45dd470b97)" d="M 126.729244 290.438222 
L 126.729244 276.797333 
" style="fill:none;stroke:#000000;stroke-linecap:square;stroke-width:0.5;"/>
   </g>
   <g id="line2d_26">
    <path clip-path="url(#p45dd470b97)" d="M 132.1856 290.438222 
L 132.1856 276.797333 
" style="fill:none;stroke:#000000;stroke-linecap:square;stroke-width:0.5;"/>
   </g>
   <g id="line2d_27">
    <path clip-path="url(#p45dd470b97)" d="M 126.729244 283.617778 
L 132.1856 283.617778 
" style="fill:none;stroke:#99d999;stroke-linecap:square;stroke-width:3;"/>
   </g>
   <g id="line2d_28">
    <path clip-path="url(#p45dd470b97)" d="M 132.1856 290.438222 
L 132.1856 276.797333 
" style="fill:none;stroke:#000000;stroke-linecap:square;stroke-width:0.5;"/>
   </g>
   <g id="line2d_29">
    <path clip-path="url(#p45dd470b97)" d="M 137.641956 290.438222 
L 137.641956 276.797333 
" style="fill:none;stroke:#000000;stroke-linecap:square;stroke-width:0.5;"/>
   </g>
   <g id="line2d_30">
    <path clip-path="url(#p45dd470b97)" d="M 132.1856 283.617778 
L 137.641956 283.617778 
" style="fill:none;stroke:#99d999;stroke-linecap:square;stroke-width:3;"/>
   </g>
   <g id="line2d_31">
    <path clip-path="url(#p45dd470b97)" d="M 137.641956 290.438222 
L 137.641956 276.797333 
" style="fill:none;stroke:#000000;stroke-linecap:square;stroke-width:0.5;"/>
   </g>
   <g id="line2d_32">
    <path clip-path="url(#p45dd470b97)" d="M 143.098311 290.438222 
L 143.098311 276.797333 
" style="fill:none;stroke:#000000;stroke-linecap:square;stroke-width:0.5;"/>
   </g>
   <g id="line2d_33">
    <path clip-path="url(#p45dd470b97)" d="M 137.641956 283.617778 
L 143.098311 283.617778 
" style="fill:none;stroke:#99d999;stroke-linecap:square;stroke-width:3;"/>
   </g>
   <g id="line2d_34">
    <path clip-path="url(#p45dd470b97)" d="M 143.098311 290.438222 
L 143.098311 276.797333 
" style="fill:none;stroke:#000000;stroke-linecap:square;stroke-width:0.5;"/>
   </g>
   <g id="line2d_35">
    <path clip-path="url(#p45dd470b97)" d="M 148.554667 290.438222 
L 148.554667 276.797333 
" style="fill:none;stroke:#000000;stroke-linecap:square;stroke-width:0.5;"/>
   </g>
   <g id="line2d_36">
    <path clip-path="url(#p45dd470b97)" d="M 143.098311 283.617778 
L 148.554667 283.617778 
" style="fill:none;stroke:#99d999;stroke-linecap:square;stroke-width:3;"/>
   </g>
   <g id="line2d_37">
    <path clip-path="url(#p45dd470b97)" d="M 148.554667 290.438222 
L 148.554667 276.797333 
" style="fill:none;stroke:#000000;stroke-linecap:square;stroke-width:0.5;"/>
   </g>
   <g id="line2d_38">
    <path clip-path="url(#p45dd470b97)" d="M 154.011022 290.438222 
L 154.011022 276.797333 
" style="fill:none;stroke:#000000;stroke-linecap:square;stroke-width:0.5;"/>
   </g>
   <g id="line2d_39">
    <path clip-path="url(#p45dd470b97)" d="M 148.554667 283.617778 
L 154.011022 283.617778 
" style="fill:none;stroke:#99d999;stroke-linecap:square;stroke-width:3;"/>
   </g>
   <g id="line2d_40">
    <path clip-path="url(#p45dd470b97)" d="M 154.011022 290.438222 
L 154.011022 276.797333 
" style="fill:none;stroke:#000000;stroke-linecap:square;stroke-width:0.5;"/>
   </g>
   <g id="line2d_41">
    <path clip-path="url(#p45dd470b97)" d="M 159.467378 290.438222 
L 159.467378 276.797333 
" style="fill:none;stroke:#000000;stroke-linecap:square;stroke-width:0.5;"/>
   </g>
   <g id="line2d_42">
    <path clip-path="url(#p45dd470b97)" d="M 154.011022 283.617778 
L 159.467378 283.617778 
" style="fill:none;stroke:#99d999;stroke-linecap:square;stroke-width:3;"/>
   </g>
   <g id="line2d_43">
    <path clip-path="url(#p45dd470b97)" d="M 159.467378 290.438222 
L 159.467378 276.797333 
" style="fill:none;stroke:#000000;stroke-linecap:square;stroke-width:0.5;"/>
   </g>
   <g id="line2d_44">
    <path clip-path="url(#p45dd470b97)" d="M 164.923733 290.438222 
L 164.923733 276.797333 
" style="fill:none;stroke:#000000;stroke-linecap:square;stroke-width:0.5;"/>
   </g>
   <g id="line2d_45">
    <path clip-path="url(#p45dd470b97)" d="M 159.467378 283.617778 
L 164.923733 283.617778 
" style="fill:none;stroke:#99d999;stroke-linecap:square;stroke-width:3;"/>
   </g>
   <g id="line2d_46">
    <path clip-path="url(#p45dd470b97)" d="M 164.923733 290.438222 
L 164.923733 276.797333 
" style="fill:none;stroke:#000000;stroke-linecap:square;stroke-width:0.5;"/>
   </g>
   <g id="line2d_47">
    <path clip-path="url(#p45dd470b97)" d="M 170.380089 290.438222 
L 170.380089 276.797333 
" style="fill:none;stroke:#000000;stroke-linecap:square;stroke-width:0.5;"/>
   </g>
   <g id="line2d_48">
    <path clip-path="url(#p45dd470b97)" d="M 164.923733 283.617778 
L 170.380089 283.617778 
" style="fill:none;stroke:#99d999;stroke-linecap:square;stroke-width:3;"/>
   </g>
   <g id="line2d_49">
    <path clip-path="url(#p45dd470b97)" d="M 170.380089 290.438222 
L 170.380089 276.797333 
" style="fill:none;stroke:#000000;stroke-linecap:square;stroke-width:0.5;"/>
   </g>
   <g id="line2d_50">
    <path clip-path="url(#p45dd470b97)" d="M 175.836444 290.438222 
L 175.836444 276.797333 
" style="fill:none;stroke:#000000;stroke-linecap:square;stroke-width:0.5;"/>
   </g>
   <g id="line2d_51">
    <path clip-path="url(#p45dd470b97)" d="M 170.380089 283.617778 
L 175.836444 283.617778 
" style="fill:none;stroke:#99d999;stroke-linecap:square;stroke-width:3;"/>
   </g>
   <g id="line2d_52">
    <path clip-path="url(#p45dd470b97)" d="M 175.836444 290.438222 
L 175.836444 276.797333 
" style="fill:none;stroke:#000000;stroke-linecap:square;stroke-width:0.5;"/>
   </g>
   <g id="line2d_53">
    <path clip-path="url(#p45dd470b97)" d="M 181.2928 290.438222 
L 181.2928 276.797333 
" style="fill:none;stroke:#000000;stroke-linecap:square;stroke-width:0.5;"/>
   </g>
   <g id="line2d_54">
    <path clip-path="url(#p45dd470b97)" d="M 175.836444 283.617778 
L 181.2928 283.617778 
" style="fill:none;stroke:#99d999;stroke-linecap:square;stroke-width:3;"/>
   </g>
   <g id="line2d_55">
    <path clip-path="url(#p45dd470b97)" d="M 181.2928 290.438222 
L 181.2928 276.797333 
" style="fill:none;stroke:#000000;stroke-linecap:square;stroke-width:0.5;"/>
   </g>
   <g id="line2d_56">
    <path clip-path="url(#p45dd470b97)" d="M 186.749156 290.438222 
L 186.749156 276.797333 
" style="fill:none;stroke:#000000;stroke-linecap:square;stroke-width:0.5;"/>
   </g>
   <g id="line2d_57">
    <path clip-path="url(#p45dd470b97)" d="M 181.2928 283.617778 
L 186.749156 283.617778 
" style="fill:none;stroke:#99d999;stroke-linecap:square;stroke-width:3;"/>
   </g>
   <g id="line2d_58">
    <path clip-path="url(#p45dd470b97)" d="M 186.749156 290.438222 
L 186.749156 276.797333 
" style="fill:none;stroke:#000000;stroke-linecap:square;stroke-width:0.5;"/>
   </g>
   <g id="line2d_59">
    <path clip-path="url(#p45dd470b97)" d="M 192.205511 290.438222 
L 192.205511 276.797333 
" style="fill:none;stroke:#000000;stroke-linecap:square;stroke-width:0.5;"/>
   </g>
   <g id="line2d_60">
    <path clip-path="url(#p45dd470b97)" d="M 186.749156 283.617778 
L 192.205511 283.617778 
" style="fill:none;stroke:#99d999;stroke-linecap:square;stroke-width:3;"/>
   </g>
   <g id="line2d_61">
    <path clip-path="url(#p45dd470b97)" d="M 192.205511 290.438222 
L 192.205511 276.797333 
" style="fill:none;stroke:#000000;stroke-linecap:square;stroke-width:0.5;"/>
   </g>
   <g id="line2d_62">
    <path clip-path="url(#p45dd470b97)" d="M 197.661867 290.438222 
L 197.661867 276.797333 
" style="fill:none;stroke:#000000;stroke-linecap:square;stroke-width:0.5;"/>
   </g>
   <g id="line2d_63">
    <path clip-path="url(#p45dd470b97)" d="M 192.205511 283.617778 
L 197.661867 283.617778 
" style="fill:none;stroke:#99d999;stroke-linecap:square;stroke-width:3;"/>
   </g>
   <g id="line2d_64">
    <path clip-path="url(#p45dd470b97)" d="M 197.661867 290.438222 
L 197.661867 276.797333 
" style="fill:none;stroke:#000000;stroke-linecap:square;stroke-width:0.5;"/>
   </g>
   <g id="line2d_65">
    <path clip-path="url(#p45dd470b97)" d="M 203.118222 290.438222 
L 203.118222 276.797333 
" style="fill:none;stroke:#000000;stroke-linecap:square;stroke-width:0.5;"/>
   </g>
   <g id="line2d_66">
    <path clip-path="url(#p45dd470b97)" d="M 197.661867 283.617778 
L 203.118222 283.617778 
" style="fill:none;stroke:#99d999;stroke-linecap:square;stroke-width:3;"/>
   </g>
   <g id="line2d_67">
    <path clip-path="url(#p45dd470b97)" d="M 203.118222 290.438222 
L 203.118222 276.797333 
" style="fill:none;stroke:#000000;stroke-linecap:square;stroke-width:0.5;"/>
   </g>
   <g id="line2d_68">
    <path clip-path="url(#p45dd470b97)" d="M 208.574578 290.438222 
L 208.574578 276.797333 
" style="fill:none;stroke:#000000;stroke-linecap:square;stroke-width:0.5;"/>
   </g>
   <g id="line2d_69">
    <path clip-path="url(#p45dd470b97)" d="M 203.118222 283.617778 
L 208.574578 283.617778 
" style="fill:none;stroke:#9999d9;stroke-linecap:square;stroke-width:3;"/>
   </g>
   <g id="line2d_70">
    <path clip-path="url(#p45dd470b97)" d="M 208.574578 290.438222 
L 208.574578 276.797333 
" style="fill:none;stroke:#000000;stroke-linecap:square;stroke-width:0.5;"/>
   </g>
   <g id="line2d_71">
    <path clip-path="url(#p45dd470b97)" d="M 214.030933 290.438222 
L 214.030933 276.797333 
" style="fill:none;stroke:#000000;stroke-linecap:square;stroke-width:0.5;"/>
   </g>
   <g id="line2d_72">
    <path clip-path="url(#p45dd470b97)" d="M 208.574578 283.617778 
L 214.030933 283.617778 
" style="fill:none;stroke:#9999d9;stroke-linecap:square;stroke-width:3;"/>
   </g>
   <g id="line2d_73">
    <path clip-path="url(#p45dd470b97)" d="M 214.030933 290.438222 
L 214.030933 276.797333 
" style="fill:none;stroke:#000000;stroke-linecap:square;stroke-width:0.5;"/>
   </g>
   <g id="line2d_74">
    <path clip-path="url(#p45dd470b97)" d="M 219.487289 290.438222 
L 219.487289 276.797333 
" style="fill:none;stroke:#000000;stroke-linecap:square;stroke-width:0.5;"/>
   </g>
   <g id="line2d_75">
    <path clip-path="url(#p45dd470b97)" d="M 214.030933 283.617778 
L 219.487289 283.617778 
" style="fill:none;stroke:#9999d9;stroke-linecap:square;stroke-width:3;"/>
   </g>
   <g id="line2d_76">
    <path clip-path="url(#p45dd470b97)" d="M 219.487289 290.438222 
L 219.487289 276.797333 
" style="fill:none;stroke:#000000;stroke-linecap:square;stroke-width:0.5;"/>
   </g>
   <g id="line2d_77">
    <path clip-path="url(#p45dd470b97)" d="M 224.943644 290.438222 
L 224.943644 276.797333 
" style="fill:none;stroke:#000000;stroke-linecap:square;stroke-width:0.5;"/>
   </g>
   <g id="line2d_78">
    <path clip-path="url(#p45dd470b97)" d="M 219.487289 283.617778 
L 224.943644 283.617778 
" style="fill:none;stroke:#9999d9;stroke-linecap:square;stroke-width:3;"/>
   </g>
   <g id="line2d_79">
    <path clip-path="url(#p45dd470b97)" d="M 224.943644 290.438222 
L 224.943644 276.797333 
" style="fill:none;stroke:#000000;stroke-linecap:square;stroke-width:0.5;"/>
   </g>
   <g id="line2d_80">
    <path clip-path="url(#p45dd470b97)" d="M 230.4 290.438222 
L 230.4 276.797333 
" style="fill:none;stroke:#000000;stroke-linecap:square;stroke-width:0.5;"/>
   </g>
   <g id="line2d_81">
    <path clip-path="url(#p45dd470b97)" d="M 224.943644 283.617778 
L 230.4 283.617778 
" style="fill:none;stroke:#9999d9;stroke-linecap:square;stroke-width:3;"/>
   </g>
   <g id="line2d_82">
    <path clip-path="url(#p45dd470b97)" d="M 230.4 290.438222 
L 230.4 276.797333 
" style="fill:none;stroke:#000000;stroke-linecap:square;stroke-width:0.5;"/>
   </g>
   <g id="line2d_83">
    <path clip-path="url(#p45dd470b97)" d="M 235.856356 290.438222 
L 235.856356 276.797333 
" style="fill:none;stroke:#000000;stroke-linecap:square;stroke-width:0.5;"/>
   </g>
   <g id="line2d_84">
    <path clip-path="url(#p45dd470b97)" d="M 230.4 283.617778 
L 235.856356 283.617778 
" style="fill:none;stroke:#9999d9;stroke-linecap:square;stroke-width:3;"/>
   </g>
   <g id="line2d_85">
    <path clip-path="url(#p45dd470b97)" d="M 235.856356 290.438222 
L 235.856356 276.797333 
" style="fill:none;stroke:#000000;stroke-linecap:square;stroke-width:0.5;"/>
   </g>
   <g id="line2d_86">
    <path clip-path="url(#p45dd470b97)" d="M 241.312711 290.438222 
L 241.312711 276.797333 
" style="fill:none;stroke:#000000;stroke-linecap:square;stroke-width:0.5;"/>
   </g>
   <g id="line2d_87">
    <path clip-path="url(#p45dd470b97)" d="M 235.856356 283.617778 
L 241.312711 283.617778 
" style="fill:none;stroke:#9999d9;stroke-linecap:square;stroke-width:3;"/>
   </g>
   <g id="line2d_88">
    <path clip-path="url(#p45dd470b97)" d="M 241.312711 290.438222 
L 241.312711 276.797333 
" style="fill:none;stroke:#000000;stroke-linecap:square;stroke-width:0.5;"/>
   </g>
   <g id="line2d_89">
    <path clip-path="url(#p45dd470b97)" d="M 246.769067 290.438222 
L 246.769067 276.797333 
" style="fill:none;stroke:#000000;stroke-linecap:square;stroke-width:0.5;"/>
   </g>
   <g id="line2d_90">
    <path clip-path="url(#p45dd470b97)" d="M 241.312711 283.617778 
L 246.769067 283.617778 
" style="fill:none;stroke:#9999d9;stroke-linecap:square;stroke-width:3;"/>
   </g>
   <g id="line2d_91">
    <path clip-path="url(#p45dd470b97)" d="M 246.769067 290.438222 
L 246.769067 276.797333 
" style="fill:none;stroke:#000000;stroke-linecap:square;stroke-width:0.5;"/>
   </g>
   <g id="line2d_92">
    <path clip-path="url(#p45dd470b97)" d="M 252.225422 290.438222 
L 252.225422 276.797333 
" style="fill:none;stroke:#000000;stroke-linecap:square;stroke-width:0.5;"/>
   </g>
   <g id="line2d_93">
    <path clip-path="url(#p45dd470b97)" d="M 246.769067 283.617778 
L 252.225422 283.617778 
" style="fill:none;stroke:#9999d9;stroke-linecap:square;stroke-width:3;"/>
   </g>
   <g id="line2d_94">
    <path clip-path="url(#p45dd470b97)" d="M 252.225422 290.438222 
L 252.225422 276.797333 
" style="fill:none;stroke:#000000;stroke-linecap:square;stroke-width:0.5;"/>
   </g>
   <g id="line2d_95">
    <path clip-path="url(#p45dd470b97)" d="M 257.681778 290.438222 
L 257.681778 276.797333 
" style="fill:none;stroke:#000000;stroke-linecap:square;stroke-width:0.5;"/>
   </g>
   <g id="line2d_96">
    <path clip-path="url(#p45dd470b97)" d="M 252.225422 283.617778 
L 257.681778 283.617778 
" style="fill:none;stroke:#9999d9;stroke-linecap:square;stroke-width:3;"/>
   </g>
   <g id="line2d_97">
    <path clip-path="url(#p45dd470b97)" d="M 257.681778 290.438222 
L 257.681778 276.797333 
" style="fill:none;stroke:#000000;stroke-linecap:square;stroke-width:0.5;"/>
   </g>
   <g id="line2d_98">
    <path clip-path="url(#p45dd470b97)" d="M 263.138133 290.438222 
L 263.138133 276.797333 
" style="fill:none;stroke:#000000;stroke-linecap:square;stroke-width:0.5;"/>
   </g>
   <g id="line2d_99">
    <path clip-path="url(#p45dd470b97)" d="M 257.681778 283.617778 
L 263.138133 283.617778 
" style="fill:none;stroke:#9999d9;stroke-linecap:square;stroke-width:3;"/>
   </g>
   <g id="line2d_100">
    <path clip-path="url(#p45dd470b97)" d="M 263.138133 290.438222 
L 263.138133 276.797333 
" style="fill:none;stroke:#000000;stroke-linecap:square;stroke-width:0.5;"/>
   </g>
   <g id="line2d_101">
    <path clip-path="url(#p45dd470b97)" d="M 268.594489 290.438222 
L 268.594489 276.797333 
" style="fill:none;stroke:#000000;stroke-linecap:square;stroke-width:0.5;"/>
   </g>
   <g id="line2d_102">
    <path clip-path="url(#p45dd470b97)" d="M 263.138133 283.617778 
L 268.594489 283.617778 
" style="fill:none;stroke:#9999d9;stroke-linecap:square;stroke-width:3;"/>
   </g>
   <g id="line2d_103">
    <path clip-path="url(#p45dd470b97)" d="M 268.594489 290.438222 
L 268.594489 276.797333 
" style="fill:none;stroke:#000000;stroke-linecap:square;stroke-width:0.5;"/>
   </g>
   <g id="line2d_104">
    <path clip-path="url(#p45dd470b97)" d="M 274.050844 290.438222 
L 274.050844 276.797333 
" style="fill:none;stroke:#000000;stroke-linecap:square;stroke-width:0.5;"/>
   </g>
   <g id="line2d_105">
    <path clip-path="url(#p45dd470b97)" d="M 268.594489 283.617778 
L 274.050844 283.617778 
" style="fill:none;stroke:#9999d9;stroke-linecap:square;stroke-width:3;"/>
   </g>
   <g id="line2d_106">
    <path clip-path="url(#p45dd470b97)" d="M 274.050844 290.438222 
L 274.050844 276.797333 
" style="fill:none;stroke:#000000;stroke-linecap:square;stroke-width:0.5;"/>
   </g>
   <g id="line2d_107">
    <path clip-path="url(#p45dd470b97)" d="M 279.5072 290.438222 
L 279.5072 276.797333 
" style="fill:none;stroke:#000000;stroke-linecap:square;stroke-width:0.5;"/>
   </g>
   <g id="line2d_108">
    <path clip-path="url(#p45dd470b97)" d="M 274.050844 283.617778 
L 279.5072 283.617778 
" style="fill:none;stroke:#9999d9;stroke-linecap:square;stroke-width:3;"/>
   </g>
   <g id="line2d_109">
    <path clip-path="url(#p45dd470b97)" d="M 279.5072 290.438222 
L 279.5072 276.797333 
" style="fill:none;stroke:#000000;stroke-linecap:square;stroke-width:0.5;"/>
   </g>
   <g id="line2d_110">
    <path clip-path="url(#p45dd470b97)" d="M 284.963556 290.438222 
L 284.963556 276.797333 
" style="fill:none;stroke:#000000;stroke-linecap:square;stroke-width:0.5;"/>
   </g>
   <g id="line2d_111">
    <path clip-path="url(#p45dd470b97)" d="M 279.5072 283.617778 
L 284.963556 283.617778 
" style="fill:none;stroke:#9999d9;stroke-linecap:square;stroke-width:3;"/>
   </g>
   <g id="line2d_112">
    <path clip-path="url(#p45dd470b97)" d="M 284.963556 290.438222 
L 284.963556 276.797333 
" style="fill:none;stroke:#000000;stroke-linecap:square;stroke-width:0.5;"/>
   </g>
   <g id="line2d_113">
    <path clip-path="url(#p45dd470b97)" d="M 290.419911 290.438222 
L 290.419911 276.797333 
" style="fill:none;stroke:#000000;stroke-linecap:square;stroke-width:0.5;"/>
   </g>
   <g id="line2d_114">
    <path clip-path="url(#p45dd470b97)" d="M 284.963556 283.617778 
L 290.419911 283.617778 
" style="fill:none;stroke:#9999d9;stroke-linecap:square;stroke-width:3;"/>
   </g>
   <g id="line2d_115">
    <path clip-path="url(#p45dd470b97)" d="M 290.419911 290.438222 
L 290.419911 276.797333 
" style="fill:none;stroke:#000000;stroke-linecap:square;stroke-width:0.5;"/>
   </g>
   <g id="line2d_116">
    <path clip-path="url(#p45dd470b97)" d="M 295.876267 290.438222 
L 295.876267 276.797333 
" style="fill:none;stroke:#000000;stroke-linecap:square;stroke-width:0.5;"/>
   </g>
   <g id="line2d_117">
    <path clip-path="url(#p45dd470b97)" d="M 290.419911 283.617778 
L 295.876267 283.617778 
" style="fill:none;stroke:#9999d9;stroke-linecap:square;stroke-width:3;"/>
   </g>
   <g id="line2d_118">
    <path clip-path="url(#p45dd470b97)" d="M 295.876267 290.438222 
L 295.876267 276.797333 
" style="fill:none;stroke:#000000;stroke-linecap:square;stroke-width:0.5;"/>
   </g>
   <g id="line2d_119">
    <path clip-path="url(#p45dd470b97)" d="M 301.332622 290.438222 
L 301.332622 276.797333 
" style="fill:none;stroke:#000000;stroke-linecap:square;stroke-width:0.5;"/>
   </g>
   <g id="line2d_120">
    <path clip-path="url(#p45dd470b97)" d="M 295.876267 283.617778 
L 301.332622 283.617778 
" style="fill:none;stroke:#9999d9;stroke-linecap:square;stroke-width:3;"/>
   </g>
   <g id="line2d_121">
    <path clip-path="url(#p45dd470b97)" d="M 301.332622 290.438222 
L 301.332622 276.797333 
" style="fill:none;stroke:#000000;stroke-linecap:square;stroke-width:0.5;"/>
   </g>
   <g id="line2d_122">
    <path clip-path="url(#p45dd470b97)" d="M 306.788978 290.438222 
L 306.788978 276.797333 
" style="fill:none;stroke:#000000;stroke-linecap:square;stroke-width:0.5;"/>
   </g>
   <g id="line2d_123">
    <path clip-path="url(#p45dd470b97)" d="M 301.332622 283.617778 
L 306.788978 283.617778 
" style="fill:none;stroke:#9999d9;stroke-linecap:square;stroke-width:3;"/>
   </g>
   <g id="line2d_124">
    <path clip-path="url(#p45dd470b97)" d="M 306.788978 290.438222 
L 306.788978 276.797333 
" style="fill:none;stroke:#000000;stroke-linecap:square;stroke-width:0.5;"/>
   </g>
   <g id="line2d_125">
    <path clip-path="url(#p45dd470b97)" d="M 312.245333 290.438222 
L 312.245333 276.797333 
" style="fill:none;stroke:#000000;stroke-linecap:square;stroke-width:0.5;"/>
   </g>
   <g id="line2d_126">
    <path clip-path="url(#p45dd470b97)" d="M 306.788978 283.617778 
L 312.245333 283.617778 
" style="fill:none;stroke:#9999d9;stroke-linecap:square;stroke-width:3;"/>
   </g>
   <g id="line2d_127">
    <path clip-path="url(#p45dd470b97)" d="M 312.245333 290.438222 
L 312.245333 276.797333 
" style="fill:none;stroke:#000000;stroke-linecap:square;stroke-width:0.5;"/>
   </g>
   <g id="line2d_128">
    <path clip-path="url(#p45dd470b97)" d="M 317.701689 290.438222 
L 317.701689 276.797333 
" style="fill:none;stroke:#000000;stroke-linecap:square;stroke-width:0.5;"/>
   </g>
   <g id="line2d_129">
    <path clip-path="url(#p45dd470b97)" d="M 312.245333 283.617778 
L 317.701689 283.617778 
" style="fill:none;stroke:#9999d9;stroke-linecap:square;stroke-width:3;"/>
   </g>
   <g id="line2d_130">
    <path clip-path="url(#p45dd470b97)" d="M 317.701689 290.438222 
L 317.701689 276.797333 
" style="fill:none;stroke:#000000;stroke-linecap:square;stroke-width:0.5;"/>
   </g>
   <g id="line2d_131">
    <path clip-path="url(#p45dd470b97)" d="M 323.158044 290.438222 
L 323.158044 276.797333 
" style="fill:none;stroke:#000000;stroke-linecap:square;stroke-width:0.5;"/>
   </g>
   <g id="line2d_132">
    <path clip-path="url(#p45dd470b97)" d="M 317.701689 283.617778 
L 323.158044 283.617778 
" style="fill:none;stroke:#9999d9;stroke-linecap:square;stroke-width:3;"/>
   </g>
   <g id="line2d_133">
    <path clip-path="url(#p45dd470b97)" d="M 323.158044 290.438222 
L 323.158044 276.797333 
" style="fill:none;stroke:#000000;stroke-linecap:square;stroke-width:0.5;"/>
   </g>
   <g id="line2d_134">
    <path clip-path="url(#p45dd470b97)" d="M 328.6144 290.438222 
L 328.6144 276.797333 
" style="fill:none;stroke:#000000;stroke-linecap:square;stroke-width:0.5;"/>
   </g>
   <g id="line2d_135">
    <path clip-path="url(#p45dd470b97)" d="M 323.158044 283.617778 
L 328.6144 283.617778 
" style="fill:none;stroke:#9999d9;stroke-linecap:square;stroke-width:3;"/>
   </g>
   <g id="line2d_136">
    <path clip-path="url(#p45dd470b97)" d="M 328.6144 290.438222 
L 328.6144 276.797333 
" style="fill:none;stroke:#000000;stroke-linecap:square;stroke-width:0.5;"/>
   </g>
   <g id="line2d_137">
    <path clip-path="url(#p45dd470b97)" d="M 334.070756 290.438222 
L 334.070756 276.797333 
" style="fill:none;stroke:#000000;stroke-linecap:square;stroke-width:0.5;"/>
   </g>
   <g id="line2d_138">
    <path clip-path="url(#p45dd470b97)" d="M 328.6144 283.617778 
L 334.070756 283.617778 
" style="fill:none;stroke:#9999d9;stroke-linecap:square;stroke-width:3;"/>
   </g>
   <g id="line2d_139">
    <path clip-path="url(#p45dd470b97)" d="M 334.070756 290.438222 
L 334.070756 276.797333 
" style="fill:none;stroke:#000000;stroke-linecap:square;stroke-width:0.5;"/>
   </g>
   <g id="line2d_140">
    <path clip-path="url(#p45dd470b97)" d="M 339.527111 290.438222 
L 339.527111 276.797333 
" style="fill:none;stroke:#000000;stroke-linecap:square;stroke-width:0.5;"/>
   </g>
   <g id="line2d_141">
    <path clip-path="url(#p45dd470b97)" d="M 334.070756 283.617778 
L 339.527111 283.617778 
" style="fill:none;stroke:#9999d9;stroke-linecap:square;stroke-width:3;"/>
   </g>
   <g id="line2d_142">
    <path clip-path="url(#p45dd470b97)" d="M 339.527111 290.438222 
L 339.527111 276.797333 
" style="fill:none;stroke:#000000;stroke-linecap:square;stroke-width:0.5;"/>
   </g>
   <g id="line2d_143">
    <path clip-path="url(#p45dd470b97)" d="M 344.983467 290.438222 
L 344.983467 276.797333 
" style="fill:none;stroke:#000000;stroke-linecap:square;stroke-width:0.5;"/>
   </g>
   <g id="line2d_144">
    <path clip-path="url(#p45dd470b97)" d="M 339.527111 283.617778 
L 344.983467 283.617778 
" style="fill:none;stroke:#9999d9;stroke-linecap:square;stroke-width:3;"/>
   </g>
   <g id="line2d_145">
    <path clip-path="url(#p45dd470b97)" d="M 344.983467 290.438222 
L 344.983467 276.797333 
" style="fill:none;stroke:#000000;stroke-linecap:square;stroke-width:0.5;"/>
   </g>
   <g id="line2d_146">
    <path clip-path="url(#p45dd470b97)" d="M 350.439822 290.438222 
L 350.439822 276.797333 
" style="fill:none;stroke:#000000;stroke-linecap:square;stroke-width:0.5;"/>
   </g>
   <g id="line2d_147">
    <path clip-path="url(#p45dd470b97)" d="M 344.983467 283.617778 
L 350.439822 283.617778 
" style="fill:none;stroke:#9999d9;stroke-linecap:square;stroke-width:3;"/>
   </g>
   <g id="line2d_148">
    <path clip-path="url(#p45dd470b97)" d="M 350.439822 290.438222 
L 350.439822 276.797333 
" style="fill:none;stroke:#000000;stroke-linecap:square;stroke-width:0.5;"/>
   </g>
   <g id="line2d_149">
    <path clip-path="url(#p45dd470b97)" d="M 355.896178 290.438222 
L 355.896178 276.797333 
" style="fill:none;stroke:#000000;stroke-linecap:square;stroke-width:0.5;"/>
   </g>
   <g id="line2d_150">
    <path clip-path="url(#p45dd470b97)" d="M 350.439822 283.617778 
L 355.896178 283.617778 
" style="fill:none;stroke:#9999d9;stroke-linecap:square;stroke-width:3;"/>
   </g>
   <g id="line2d_151">
    <path clip-path="url(#p45dd470b97)" d="M 355.896178 290.438222 
L 355.896178 276.797333 
" style="fill:none;stroke:#000000;stroke-linecap:square;stroke-width:0.5;"/>
   </g>
   <g id="line2d_152">
    <path clip-path="url(#p45dd470b97)" d="M 361.352533 290.438222 
L 361.352533 276.797333 
" style="fill:none;stroke:#000000;stroke-linecap:square;stroke-width:0.5;"/>
   </g>
   <g id="line2d_153">
    <path clip-path="url(#p45dd470b97)" d="M 355.896178 283.617778 
L 361.352533 283.617778 
" style="fill:none;stroke:#9999d9;stroke-linecap:square;stroke-width:3;"/>
   </g>
   <g id="line2d_154">
    <path clip-path="url(#p45dd470b97)" d="M 361.352533 290.438222 
L 361.352533 276.797333 
" style="fill:none;stroke:#000000;stroke-linecap:square;stroke-width:0.5;"/>
   </g>
   <g id="line2d_155">
    <path clip-path="url(#p45dd470b97)" d="M 366.808889 290.438222 
L 366.808889 276.797333 
" style="fill:none;stroke:#000000;stroke-linecap:square;stroke-width:0.5;"/>
   </g>
   <g id="line2d_156">
    <path clip-path="url(#p45dd470b97)" d="M 361.352533 283.617778 
L 366.808889 283.617778 
" style="fill:none;stroke:#9999d9;stroke-linecap:square;stroke-width:3;"/>
   </g>
   <g id="line2d_157">
    <path clip-path="url(#p45dd470b97)" d="M 93.991111 297.258667 
L 93.991111 269.976889 
" style="fill:none;stroke:#ff0000;stroke-linecap:square;stroke-width:3;"/>
   </g>
   <g id="line2d_158">
    <path clip-path="url(#p45dd470b97)" d="M 366.808889 297.258667 
L 366.808889 269.976889 
" style="fill:none;stroke:#0000ff;stroke-linecap:square;stroke-width:3;"/>
   </g>
   <g id="patch_3">
    <path d="M 80.350222 317.72 
L 80.350222 10.8 
" style="fill:none;stroke:#000000;stroke-linecap:square;stroke-linejoin:miter;stroke-width:0.8;"/>
   </g>
   <g id="patch_4">
    <path d="M 380.449778 317.72 
L 380.449778 10.8 
" style="fill:none;stroke:#000000;stroke-linecap:square;stroke-linejoin:miter;stroke-width:0.8;"/>
   </g>
   <g id="patch_5">
    <path d="M 80.350222 317.72 
L 380.449778 317.72 
" style="fill:none;stroke:#000000;stroke-linecap:square;stroke-linejoin:miter;stroke-width:0.8;"/>
   </g>
   <g id="patch_6">
    <path d="M 80.350222 10.8 
L 380.449778 10.8 
" style="fill:none;stroke:#000000;stroke-linecap:square;stroke-linejoin:miter;stroke-width:0.8;"/>
   </g>
   <g id="legend_1">
    <g id="patch_7">
     <path d="M 283.079465 77.5125 
L 373.449778 77.5125 
Q 375.449778 77.5125 375.449778 75.5125 
L 375.449778 17.8 
Q 375.449778 15.8 373.449778 15.8 
L 283.079465 15.8 
Q 281.079465 15.8 281.079465 17.8 
L 281.079465 75.5125 
Q 281.079465 77.5125 283.079465 77.5125 
z
" style="fill:#ffffff;opacity:0.8;stroke:#cccccc;stroke-linejoin:miter;"/>
    </g>
    <g id="line2d_159">
     <path d="M 285.079465 23.898438 
L 305.079465 23.898438 
" style="fill:none;stroke:#99d999;stroke-linecap:square;stroke-width:3;"/>
    </g>
    <g id="line2d_160"/>
    <g id="text_7">
     <!-- cellregion 2 -->
     <g transform="translate(313.079465 27.398438)scale(0.1 -0.1)">
      <defs>
       <path d="M 48.78125 52.59375 
L 48.78125 44.1875 
Q 44.96875 46.296875 41.140625 47.34375 
Q 37.3125 48.390625 33.40625 48.390625 
Q 24.65625 48.390625 19.8125 42.84375 
Q 14.984375 37.3125 14.984375 27.296875 
Q 14.984375 17.28125 19.8125 11.734375 
Q 24.65625 6.203125 33.40625 6.203125 
Q 37.3125 6.203125 41.140625 7.25 
Q 44.96875 8.296875 48.78125 10.40625 
L 48.78125 2.09375 
Q 45.015625 0.34375 40.984375 -0.53125 
Q 36.96875 -1.421875 32.421875 -1.421875 
Q 20.0625 -1.421875 12.78125 6.34375 
Q 5.515625 14.109375 5.515625 27.296875 
Q 5.515625 40.671875 12.859375 48.328125 
Q 20.21875 56 33.015625 56 
Q 37.15625 56 41.109375 55.140625 
Q 45.0625 54.296875 48.78125 52.59375 
z
" id="DejaVuSans-99"/>
       <path d="M 56.203125 29.59375 
L 56.203125 25.203125 
L 14.890625 25.203125 
Q 15.484375 15.921875 20.484375 11.0625 
Q 25.484375 6.203125 34.421875 6.203125 
Q 39.59375 6.203125 44.453125 7.46875 
Q 49.3125 8.734375 54.109375 11.28125 
L 54.109375 2.78125 
Q 49.265625 0.734375 44.1875 -0.34375 
Q 39.109375 -1.421875 33.890625 -1.421875 
Q 20.796875 -1.421875 13.15625 6.1875 
Q 5.515625 13.8125 5.515625 26.8125 
Q 5.515625 40.234375 12.765625 48.109375 
Q 20.015625 56 32.328125 56 
Q 43.359375 56 49.78125 48.890625 
Q 56.203125 41.796875 56.203125 29.59375 
z
M 47.21875 32.234375 
Q 47.125 39.59375 43.09375 43.984375 
Q 39.0625 48.390625 32.421875 48.390625 
Q 24.90625 48.390625 20.390625 44.140625 
Q 15.875 39.890625 15.1875 32.171875 
z
" id="DejaVuSans-101"/>
       <path d="M 9.421875 75.984375 
L 18.40625 75.984375 
L 18.40625 0 
L 9.421875 0 
z
" id="DejaVuSans-108"/>
       <path d="M 41.109375 46.296875 
Q 39.59375 47.171875 37.8125 47.578125 
Q 36.03125 48 33.890625 48 
Q 26.265625 48 22.1875 43.046875 
Q 18.109375 38.09375 18.109375 28.8125 
L 18.109375 0 
L 9.078125 0 
L 9.078125 54.6875 
L 18.109375 54.6875 
L 18.109375 46.1875 
Q 20.953125 51.171875 25.484375 53.578125 
Q 30.03125 56 36.53125 56 
Q 37.453125 56 38.578125 55.875 
Q 39.703125 55.765625 41.0625 55.515625 
z
" id="DejaVuSans-114"/>
       <path d="M 45.40625 27.984375 
Q 45.40625 37.75 41.375 43.109375 
Q 37.359375 48.484375 30.078125 48.484375 
Q 22.859375 48.484375 18.828125 43.109375 
Q 14.796875 37.75 14.796875 27.984375 
Q 14.796875 18.265625 18.828125 12.890625 
Q 22.859375 7.515625 30.078125 7.515625 
Q 37.359375 7.515625 41.375 12.890625 
Q 45.40625 18.265625 45.40625 27.984375 
z
M 54.390625 6.78125 
Q 54.390625 -7.171875 48.1875 -13.984375 
Q 42 -20.796875 29.203125 -20.796875 
Q 24.46875 -20.796875 20.265625 -20.09375 
Q 16.0625 -19.390625 12.109375 -17.921875 
L 12.109375 -9.1875 
Q 16.0625 -11.328125 19.921875 -12.34375 
Q 23.78125 -13.375 27.78125 -13.375 
Q 36.625 -13.375 41.015625 -8.765625 
Q 45.40625 -4.15625 45.40625 5.171875 
L 45.40625 9.625 
Q 42.625 4.78125 38.28125 2.390625 
Q 33.9375 0 27.875 0 
Q 17.828125 0 11.671875 7.65625 
Q 5.515625 15.328125 5.515625 27.984375 
Q 5.515625 40.671875 11.671875 48.328125 
Q 17.828125 56 27.875 56 
Q 33.9375 56 38.28125 53.609375 
Q 42.625 51.21875 45.40625 46.390625 
L 45.40625 54.6875 
L 54.390625 54.6875 
z
" id="DejaVuSans-103"/>
       <path d="M 9.421875 54.6875 
L 18.40625 54.6875 
L 18.40625 0 
L 9.421875 0 
z
M 9.421875 75.984375 
L 18.40625 75.984375 
L 18.40625 64.59375 
L 9.421875 64.59375 
z
" id="DejaVuSans-105"/>
       <path d="M 30.609375 48.390625 
Q 23.390625 48.390625 19.1875 42.75 
Q 14.984375 37.109375 14.984375 27.296875 
Q 14.984375 17.484375 19.15625 11.84375 
Q 23.34375 6.203125 30.609375 6.203125 
Q 37.796875 6.203125 41.984375 11.859375 
Q 46.1875 17.53125 46.1875 27.296875 
Q 46.1875 37.015625 41.984375 42.703125 
Q 37.796875 48.390625 30.609375 48.390625 
z
M 30.609375 56 
Q 42.328125 56 49.015625 48.375 
Q 55.71875 40.765625 55.71875 27.296875 
Q 55.71875 13.875 49.015625 6.21875 
Q 42.328125 -1.421875 30.609375 -1.421875 
Q 18.84375 -1.421875 12.171875 6.21875 
Q 5.515625 13.875 5.515625 27.296875 
Q 5.515625 40.765625 12.171875 48.375 
Q 18.84375 56 30.609375 56 
z
" id="DejaVuSans-111"/>
       <path d="M 54.890625 33.015625 
L 54.890625 0 
L 45.90625 0 
L 45.90625 32.71875 
Q 45.90625 40.484375 42.875 44.328125 
Q 39.84375 48.1875 33.796875 48.1875 
Q 26.515625 48.1875 22.3125 43.546875 
Q 18.109375 38.921875 18.109375 30.90625 
L 18.109375 0 
L 9.078125 0 
L 9.078125 54.6875 
L 18.109375 54.6875 
L 18.109375 46.1875 
Q 21.34375 51.125 25.703125 53.5625 
Q 30.078125 56 35.796875 56 
Q 45.21875 56 50.046875 50.171875 
Q 54.890625 44.34375 54.890625 33.015625 
z
" id="DejaVuSans-110"/>
       <path id="DejaVuSans-32"/>
      </defs>
      <use xlink:href="#DejaVuSans-99"/>
      <use x="54.980469" xlink:href="#DejaVuSans-101"/>
      <use x="116.503906" xlink:href="#DejaVuSans-108"/>
      <use x="144.287109" xlink:href="#DejaVuSans-108"/>
      <use x="172.070312" xlink:href="#DejaVuSans-114"/>
      <use x="210.933594" xlink:href="#DejaVuSans-101"/>
      <use x="272.457031" xlink:href="#DejaVuSans-103"/>
      <use x="335.933594" xlink:href="#DejaVuSans-105"/>
      <use x="363.716797" xlink:href="#DejaVuSans-111"/>
      <use x="424.898438" xlink:href="#DejaVuSans-110"/>
      <use x="488.277344" xlink:href="#DejaVuSans-32"/>
      <use x="520.064453" xlink:href="#DejaVuSans-50"/>
     </g>
    </g>
    <g id="line2d_161">
     <path d="M 285.079465 38.576563 
L 305.079465 38.576563 
" style="fill:none;stroke:#9999d9;stroke-linecap:square;stroke-width:3;"/>
    </g>
    <g id="line2d_162"/>
    <g id="text_8">
     <!-- cellregion 3 -->
     <g transform="translate(313.079465 42.076563)scale(0.1 -0.1)">
      <use xlink:href="#DejaVuSans-99"/>
      <use x="54.980469" xlink:href="#DejaVuSans-101"/>
      <use x="116.503906" xlink:href="#DejaVuSans-108"/>
      <use x="144.287109" xlink:href="#DejaVuSans-108"/>
      <use x="172.070312" xlink:href="#DejaVuSans-114"/>
      <use x="210.933594" xlink:href="#DejaVuSans-101"/>
      <use x="272.457031" xlink:href="#DejaVuSans-103"/>
      <use x="335.933594" xlink:href="#DejaVuSans-105"/>
      <use x="363.716797" xlink:href="#DejaVuSans-111"/>
      <use x="424.898438" xlink:href="#DejaVuSans-110"/>
      <use x="488.277344" xlink:href="#DejaVuSans-32"/>
      <use x="520.064453" xlink:href="#DejaVuSans-51"/>
     </g>
    </g>
    <g id="line2d_163">
     <path d="M 285.079465 53.254687 
L 305.079465 53.254687 
" style="fill:none;stroke:#ff0000;stroke-linecap:square;stroke-width:3;"/>
    </g>
    <g id="line2d_164"/>
    <g id="text_9">
     <!-- boundary 1 -->
     <g transform="translate(313.079465 56.754687)scale(0.1 -0.1)">
      <defs>
       <path d="M 48.6875 27.296875 
Q 48.6875 37.203125 44.609375 42.84375 
Q 40.53125 48.484375 33.40625 48.484375 
Q 26.265625 48.484375 22.1875 42.84375 
Q 18.109375 37.203125 18.109375 27.296875 
Q 18.109375 17.390625 22.1875 11.75 
Q 26.265625 6.109375 33.40625 6.109375 
Q 40.53125 6.109375 44.609375 11.75 
Q 48.6875 17.390625 48.6875 27.296875 
z
M 18.109375 46.390625 
Q 20.953125 51.265625 25.265625 53.625 
Q 29.59375 56 35.59375 56 
Q 45.5625 56 51.78125 48.09375 
Q 58.015625 40.1875 58.015625 27.296875 
Q 58.015625 14.40625 51.78125 6.484375 
Q 45.5625 -1.421875 35.59375 -1.421875 
Q 29.59375 -1.421875 25.265625 0.953125 
Q 20.953125 3.328125 18.109375 8.203125 
L 18.109375 0 
L 9.078125 0 
L 9.078125 75.984375 
L 18.109375 75.984375 
z
" id="DejaVuSans-98"/>
       <path d="M 8.5 21.578125 
L 8.5 54.6875 
L 17.484375 54.6875 
L 17.484375 21.921875 
Q 17.484375 14.15625 20.5 10.265625 
Q 23.53125 6.390625 29.59375 6.390625 
Q 36.859375 6.390625 41.078125 11.03125 
Q 45.3125 15.671875 45.3125 23.6875 
L 45.3125 54.6875 
L 54.296875 54.6875 
L 54.296875 0 
L 45.3125 0 
L 45.3125 8.40625 
Q 42.046875 3.421875 37.71875 1 
Q 33.40625 -1.421875 27.6875 -1.421875 
Q 18.265625 -1.421875 13.375 4.4375 
Q 8.5 10.296875 8.5 21.578125 
z
M 31.109375 56 
z
" id="DejaVuSans-117"/>
       <path d="M 45.40625 46.390625 
L 45.40625 75.984375 
L 54.390625 75.984375 
L 54.390625 0 
L 45.40625 0 
L 45.40625 8.203125 
Q 42.578125 3.328125 38.25 0.953125 
Q 33.9375 -1.421875 27.875 -1.421875 
Q 17.96875 -1.421875 11.734375 6.484375 
Q 5.515625 14.40625 5.515625 27.296875 
Q 5.515625 40.1875 11.734375 48.09375 
Q 17.96875 56 27.875 56 
Q 33.9375 56 38.25 53.625 
Q 42.578125 51.265625 45.40625 46.390625 
z
M 14.796875 27.296875 
Q 14.796875 17.390625 18.875 11.75 
Q 22.953125 6.109375 30.078125 6.109375 
Q 37.203125 6.109375 41.296875 11.75 
Q 45.40625 17.390625 45.40625 27.296875 
Q 45.40625 37.203125 41.296875 42.84375 
Q 37.203125 48.484375 30.078125 48.484375 
Q 22.953125 48.484375 18.875 42.84375 
Q 14.796875 37.203125 14.796875 27.296875 
z
" id="DejaVuSans-100"/>
       <path d="M 34.28125 27.484375 
Q 23.390625 27.484375 19.1875 25 
Q 14.984375 22.515625 14.984375 16.5 
Q 14.984375 11.71875 18.140625 8.90625 
Q 21.296875 6.109375 26.703125 6.109375 
Q 34.1875 6.109375 38.703125 11.40625 
Q 43.21875 16.703125 43.21875 25.484375 
L 43.21875 27.484375 
z
M 52.203125 31.203125 
L 52.203125 0 
L 43.21875 0 
L 43.21875 8.296875 
Q 40.140625 3.328125 35.546875 0.953125 
Q 30.953125 -1.421875 24.3125 -1.421875 
Q 15.921875 -1.421875 10.953125 3.296875 
Q 6 8.015625 6 15.921875 
Q 6 25.140625 12.171875 29.828125 
Q 18.359375 34.515625 30.609375 34.515625 
L 43.21875 34.515625 
L 43.21875 35.40625 
Q 43.21875 41.609375 39.140625 45 
Q 35.0625 48.390625 27.6875 48.390625 
Q 23 48.390625 18.546875 47.265625 
Q 14.109375 46.140625 10.015625 43.890625 
L 10.015625 52.203125 
Q 14.9375 54.109375 19.578125 55.046875 
Q 24.21875 56 28.609375 56 
Q 40.484375 56 46.34375 49.84375 
Q 52.203125 43.703125 52.203125 31.203125 
z
" id="DejaVuSans-97"/>
       <path d="M 32.171875 -5.078125 
Q 28.375 -14.84375 24.75 -17.8125 
Q 21.140625 -20.796875 15.09375 -20.796875 
L 7.90625 -20.796875 
L 7.90625 -13.28125 
L 13.1875 -13.28125 
Q 16.890625 -13.28125 18.9375 -11.515625 
Q 21 -9.765625 23.484375 -3.21875 
L 25.09375 0.875 
L 2.984375 54.6875 
L 12.5 54.6875 
L 29.59375 11.921875 
L 46.6875 54.6875 
L 56.203125 54.6875 
z
" id="DejaVuSans-121"/>
      </defs>
      <use xlink:href="#DejaVuSans-98"/>
      <use x="63.476562" xlink:href="#DejaVuSans-111"/>
      <use x="124.658203" xlink:href="#DejaVuSans-117"/>
      <use x="188.037109" xlink:href="#DejaVuSans-110"/>
      <use x="251.416016" xlink:href="#DejaVuSans-100"/>
      <use x="314.892578" xlink:href="#DejaVuSans-97"/>
      <use x="376.171875" xlink:href="#DejaVuSans-114"/>
      <use x="417.285156" xlink:href="#DejaVuSans-121"/>
      <use x="476.464844" xlink:href="#DejaVuSans-32"/>
      <use x="508.251953" xlink:href="#DejaVuSans-49"/>
     </g>
    </g>
    <g id="line2d_165">
     <path d="M 285.079465 67.932813 
L 305.079465 67.932813 
" style="fill:none;stroke:#0000ff;stroke-linecap:square;stroke-width:3;"/>
    </g>
    <g id="line2d_166"/>
    <g id="text_10">
     <!-- boundary 3 -->
     <g transform="translate(313.079465 71.432813)scale(0.1 -0.1)">
      <use xlink:href="#DejaVuSans-98"/>
      <use x="63.476562" xlink:href="#DejaVuSans-111"/>
      <use x="124.658203" xlink:href="#DejaVuSans-117"/>
      <use x="188.037109" xlink:href="#DejaVuSans-110"/>
      <use x="251.416016" xlink:href="#DejaVuSans-100"/>
      <use x="314.892578" xlink:href="#DejaVuSans-97"/>
      <use x="376.171875" xlink:href="#DejaVuSans-114"/>
      <use x="417.285156" xlink:href="#DejaVuSans-121"/>
      <use x="476.464844" xlink:href="#DejaVuSans-32"/>
      <use x="508.251953" xlink:href="#DejaVuSans-51"/>
     </g>
    </g>
   </g>
  </g>
 </g>
 <defs>
  <clipPath id="p45dd470b97">
   <rect height="306.92" width="300.099556" x="80.350222" y="10.8"/>
  </clipPath>
 </defs>
</svg>
